<svg height="228" viewBox="0 0 734 228" width="734" xmlns="http://www.w3.org/2000/svg"><g fill="none" fill-rule="evenodd" transform=""><path d="m637 34.4940067v-6.4940067c23.154242-.0009304 41.997274 19.2866416 42 42.9981393l-6.343703.0018607c-.001817-20.1304903-15.99736-36.5059933-35.656297-36.5059933" fill="#f8c44f"/><path d="m637 46.4274471v-6.4274471c8.279738-.0009206 16.062415 3.222932 21.918522 9.076697l.004603.005525c5.853346 5.8546859 9.075955 13.6385266 9.076875 21.917778h-6.425886c-.001841-6.5609683-2.556179-12.7315015-7.194489-17.3725233l-.004603-.0036833c-4.641071-4.6410218-10.811063-7.198188-17.375022-7.1963463" fill="#f8c44f"/><path d="m637 58.4872836.001858-6.4872836c10.474014.0027878 18.996284 8.524259 18.998142 19l-6.484134-.0009293c-.002787-6.8970948-5.615558-12.5117871-12.515866-12.5117871" fill="#f8c44f"/><path d="m642.825307 65.1728569c-.722049-.7221391-1.72242-1.1728569-2.824808-1.1728569-2.21072 0-4.004454 1.7919748-4.000492 4.0019779-.001981 1.1045063.44769 2.1040102 1.16974 2.8281304.72403.7241203 1.724401 1.1718663 2.828771 1.1698852 2.207748.0019811 4.001482-1.7929654 4.001482-3.9999968-.00099-1.1045063-.449672-2.102029-1.174693-2.8271398" fill="#f8c44f"/><path d="m302 203h-18.186491v-155.8950667c0-15.3768128-12.469567-27.8870401-27.796232-27.8870401-15.345761 0-27.830786 12.5102273-27.830786 27.8870401v68.7506857h-18.186491v-68.7506857c0-25.4221591 20.642576-46.1049333 46.017277-46.1049333 25.354696 0 45.982723 20.6827742 45.982723 46.1049333z" fill="#f8c44f"/><path d="m307.507328 234c-13.513703 0-24.507328-11.050818-24.507328-24.635324v-6.663819h18.321182v6.663819c0 3.431342 2.774742 6.221897 6.186146 6.221897 3.40316 0 6.17149-2.790555 6.17149-6.221897v-36.364676h18.321182v36.364676c0 13.584506-10.987213 24.635324-24.492672 24.635324" fill="#f8c44f"/><g fill="#282d33"><path d="m291 204h3v-3h-3z"/><path d="m266.687041 13.9045414c-2.261042-.645431-4.600841-1.0631709-6.958039-1.2431204l.277479-3.661421c2.601709.19831167 5.186019.66012079 7.684246 1.3725738zm-20.920821.4911886-1.166694-3.4805534c2.463427-.8318073 5.024843-1.41297066 7.610068-1.7333909l.447813 3.6448951c-2.34163.2892045-4.65945.8171175-6.891187 1.5690492zm33.403714 6.0071911c-1.837039-1.4873376-3.827928-2.7938075-5.915889-3.8808492l1.688684-3.2592891c2.304999 1.2008874 4.501937 2.6414013 6.529457 4.2829812zm-45.578909 1.0668433-2.428628-2.747902c1.947848-1.7315547 4.076103-3.2730607 6.32524-4.5804487l1.83704 3.1766592c-2.037594 1.1852794-3.966211 2.5817241-5.733652 4.1516915zm54.560805 9.7971474c-1.113579-2.0822725-2.44328-4.0607987-3.947895-5.8823281l2.818748-2.3439338c1.662127 2.0088238 3.127363 4.1920884 4.358161 6.4891986zm-63.039026 1.4634667-3.304107-1.5855752c1.122737-2.3494425 2.488154-4.5969748 4.058704-6.6810835l2.92223 2.2144803c-1.423111 1.8876333-2.660319 3.9240004-3.676827 6.0521784zm67.078499 12.0437616c-.21246-2.3586236-.66302-4.699803-1.337944-6.9574345l3.50924-1.0549079c.745439 2.4945038 1.241787 5.0780641 1.477141 7.6818229zm-70.491582 1.6351532-3.659427-.1625054c.115387-2.6129399.492686-5.2166987 1.121821-7.740582l3.554113.8914844c-.570526 2.2851748-.912109 4.6447164-1.016507 7.011603zm70.637189 13.1335576h3.66309v-7.4706577h-3.66309zm-74.33691 1.7242098h3.66309v-7.4697396h-3.66309zm74.33691 13.2152694h3.66309v-7.4706577h-3.66309zm-74.33691 1.7251279h3.66309v-7.4706577h-3.66309zm74.33691 13.2143513h3.66309v-7.4697396h-3.66309zm-74.33691 1.7251279h3.66309v-7.4697396h-3.66309zm74.33691 13.2143518h3.66309v-7.4697401h-3.66309zm-74.33691 1.725127h3.66309v-7.4697392h-3.66309zm74.33691 13.214352h3.66309v-7.46974h-3.66309zm0 14.940397h3.66309v-7.46974h-3.66309zm0 14.939479h3.66309v-7.469739h-3.66309zm0 14.939479h3.66309v-7.469739h-3.66309zm0 14.93948h3.66309v-7.46974h-3.66309zm0 14.940397h3.66309v-7.46974h-3.66309z"/><path d="m218 117h3v-3h-3z"/><path d="m61 31h17v-3h-17z"/><path d="m50 31h5v-3h-5z"/><path d="m40 42h17v-3h-17z"/><path d="m31 42h5v-3h-5z"/><path d="m143 128h3v-7h-3z"/><path d="m136.079267 133-5.079267-5.079267 2.920733-2.920733 5.079267 5.078234z"/><path d="m129 139h7v-3h-7z"/><path d="m133.920733 150-2.920733-2.920733 5.079267-5.079267 2.920733 2.920733z"/><path d="m143 153h3v-7h-3z"/><path d="m154.079644 150-5.079644-5.079365 2.920356-2.920635 5.079644 5.080397z"/><path d="m161 139-7-.00075v-2.99925l7 .00075z"/><path d="m151.920356 133-2.920356-2.921389 5.079644-5.078611 2.920356 2.920356z"/><path d="m99 260h-3.5820468v-113.627042c0-11.987174-9.6124225-21.740206-21.4278038-21.740206-11.8037397 0-21.4081026 9.753032-21.4081026 21.740206v20.536857h-3.5820468v-20.536857c0-13.990637 11.2109109-25.372958 24.9901494-25.372958 13.7908801 0 25.0098506 11.382321 25.0098506 25.372958z"/><path d="m225.597717 260h-3.597717v-73.452498c0-10.778246 8.594045-19.547502 19.156941-19.547502h29.843059v3.671065h-29.843059c-8.579654 0-15.559224 7.122783-15.559224 15.876437z"/><path d="m430.625111 175.374889h33.749778v-33.749778h-33.749778zm-3.625111 3.625111h41v-41h-41z"/><path d="m429.566942 178-2.566942-2.566942 37.433058-37.433058 2.566942 2.566942z"/><path d="m464.433058 178-37.433058-37.433058 2.566942-2.566942 37.433058 37.433058z"/></g><path d="m102 100h61v-20h-61z" fill="#baaaf4"/><path d="m117 91h32v-3h-32z" fill="#282d33"/><path d="m111 64h29v-3h-29z" fill="#282d33"/><path d="m111 71h29v-3h-29z" fill="#282d33"/><path d="m102 68h7v-7h-7z" fill="#baaaf4"/><path d="m146 72h19v-11h-19z" fill="#f8c44f"/><path d="m150 67h9v-3h-9z" fill="#282d33"/><path d="m181.678972 228h-21.724904c-4.394919 0-8.455382-1.875819-11.280292-5.179486h-5.673776v-3.649452h7.486104l.551899.73354c2.131121 2.825588 5.379859 4.445945 8.916065 4.445945l26.895613-.030108c2.230629 0 4.045721-1.796443 4.045721-4.004361 0-2.207919-1.815092-4.005275-4.045721-4.005275v-3.649452h4.711869c2.229708 0 4.043879-1.796443 4.043879-4.006187 0-2.207919-1.814171-4.005274-4.043879-4.005274v-3.649453h1.569088c2.230628 0 4.044799-1.796443 4.044799-4.004361 0-2.209744-1.814171-4.006187-4.044799-4.006187v-3.649453h3.140017c2.229708 0 4.043878-1.797355 4.043878-4.006186 0-2.207919-1.81417-4.004362-4.043878-4.004362h-16.486013c-.205465 0-.4312.020072-.690104.062953l-.303129.024634h-9.034l2.667356-9.326176v-7.963106c0-3.020834-2.482162-5.47874-5.534649-5.47874h-.917681v9.951144l-3.34364 4.639367-10.720101 11.595223c-1.356252 1.415075-2.304338 3.135792-2.763178 4.998838l-.34367 1.392266h-5.801846v-3.649453h2.983385c.691025-1.943333 1.792058-3.730652 3.230312-5.229665l10.619672-11.488477 2.453599-3.422274v-12.358871l1.778238-.062041c.16861-.010036.26996-.01551.369468-.01551h2.455442c5.084101 0 9.220116 4.094686 9.220116 9.128193v8.469467l-1.477872 5.170362h4.014394c.400795-.058391.774869-.087587 1.137888-.087587h16.486013c4.262242 0 7.729345 3.433223 7.729345 7.653815 0 3.159513-1.942241 5.877443-4.706341 7.045268.98402 1.283695 1.567245 2.88398 1.567245 4.616558 0 2.723404-1.444703 5.120182-3.614521 6.476866 1.2678 1.364895 2.044512 3.184147 2.044512 5.182222 0 3.625731-2.558635 6.6712-5.982434 7.459481.804354 1.206144 1.272408 2.651328 1.272408 4.201433 0 4.219679-3.468024 7.653814-7.731188 7.653814z" fill="#282d33"/><path d="m117 232h25v-45h-25z" fill="#baaaf4"/><path d="m131 229h3v-3h-3z" fill="#fff"/><path d="m271 243h141v-105h-141z" fill="#f8c44f"/><path d="m254 260h141v-105h-141z" fill="#fff"/><path d="m254.623545 259.324118h135.751098v-101.648236h-135.751098zm-3.623545 3.675882h143v-109h-143z" fill="#282d33"/><path d="m265 167v46.555636l21.269127-28.33309 20.884227 27.831869 13.510446-18.005018 17.196431 22.918443 3.776549 5.03216h38.36322v-56z" fill="#baaaf4"/><path d="m364 189.001381c0 5.523275-4.477804 9.998619-10 9.998619-5.519433 0-10-4.475344-10-9.998619 0-5.517749 4.480567-10.001381 10-10.001381 5.522196 0 10 4.483632 10 10.001381" fill="#fff"/><path d="m587 80h56v41.88568h-9.741556v11.11432l-10.548246-11.11432h-35.710198z" fill="#f8c44f"/><path d="m628 57h-74v46.41978h11.723693v14.58022l15.332315-14.58022h46.943992z" fill="#fff"/><path d="m555.662617 103.087537h11.776228v12.322682l12.833809-12.322682h46.064729v-43.4323108h-70.674766zm8.113611 20.912463v-17.257237h-11.776228v-50.742763h78v50.742763h-48.252228z" fill="#282d33"/><path d="m568 73h45v-3h-45z" fill="#282d33"/><path d="m568 83h45v-3h-45z" fill="#282d33"/><path d="m568 91h45v-3h-45z" fill="#282d33"/><path d="m84 235h-68v-40h8.3877453v3.699422h-4.7519649v32.601156h60.7284392v-32.601156h-5.0910014v-3.699422h8.7267818z" fill="#282d33"/><path d="m19.3759799 234-2.3759799-2.650213 18.6240201-17.349787 2.3759799 2.650213z" fill="#282d33"/><path d="m79.6237213 234-18.6237213-17.349787 2.3762787-2.650213 18.6237213 17.349787z" fill="#282d33"/><path d="m83.992665 197h-64.977995v2.175616h-.01467l.01467.012509v.010721h.01467l8.0941701 6.726987 5.6992933 4.739002c.6702354.553955 1.5467676 1.284819 2.4251336 2.016577l7.5871384 6.302585 6.2393325 5.18574c1.3349696 1.107017 3.5189652 1.107017 4.8511842 0l6.2393325-5.18574 7.5871384-6.302585c.878366-.731758 1.7558151-1.462622 2.4232999-2.016577l5.6992933-4.739002 8.0960038-6.726987h.022005v-.018763l.007335-.004467h-.007335z" fill="#f8c44f"/><path d="m20.144456 198.622061 12.5328822 10.659724c.581193.4926 1.3249384 1.126461 2.0886624 1.776621l14.0067513 11.911146c.6093445.517049 1.8380228.519766 2.4482755-.000905l28.6273878-24.346586zm29.8533418 28.377939c-1.3412845 0-2.6126442-.451852-3.5797857-1.27406l-14.0122-11.913863c-.7600915-.647443-1.5002044-1.278587-2.0823055-1.772093l-13.5808459-11.549846c-.3241967-.239961-.565755-.584057-.6738206-.980673-.0581193-.204646-.0799141-.420159-.063568-.634766v-2.063669c0-.999688.8136702-1.81103 1.8162281-1.81103h64.3580438c1.0025579 0 1.8162281.811342 1.8162281 1.81103v2.083591c.0254272.36945-.0644761.736183-.2524557 1.051303-.1344009.230906-.3178399.429214-.5366954.58134l-29.6290376 25.197771c-.9662334.822207-2.2375931 1.274965-3.5797856 1.274965z" fill="#282d33"/><path d="m49 178h3v-5h-3z" fill="#282d33"/><path d="m39.5141671 181-1.5141671-6.006854 3.4867352-.993146 1.5132648 6.006854z" fill="#282d33"/><path d="m31.3825503 185-3.3825503-5.160799 3.6174497-1.839201 3.3825503 5.160799z" fill="#282d33"/><path d="m69.618529 186-3.618529-1.839926 3.381471-5.160074 3.618529 1.838086z" fill="#282d33"/><path d="m60.4870915 181-3.4870915-.993418 1.5120058-6.006582 3.4879942.993418z" fill="#282d33"/><path d="m182 139.496538c0 2.617278 1.98427 4.734195 4.436998 4.734195h8.596971v17.769267l21.069528-17.769267h38.453063c2.455488 0 4.44344-2.116917 4.44344-4.734195v-53.7568448c0-2.620944-1.987952-4.7396932-4.44344-4.7396932h-68.119562c-2.452728 0-4.436998 2.1187492-4.436998 4.7396932z" fill="#fff"/><path d="m185.224676 83.632447c-1.419967 0-2.574375 1.291335-2.574375 2.8796224v53.2707436c0 1.585564 1.154408 2.875082 2.574375 2.875082h10.349516v15.505101l18.396606-15.505101h38.798138c1.422705 0 2.580763-1.289518 2.580763-2.875082v-53.2707436c0-1.5882874-1.158058-2.8796224-2.580763-2.8796224zm6.699215 82.367553v-19.709658h-6.699215c-3.433108 0-6.224676-2.919579-6.224676-6.507529v-53.2707436c0-3.5906739 2.791568-6.5120694 6.224676-6.5120694h67.54426c3.434933 0 6.231064 2.9213955 6.231064 6.5120694v53.2707436c0 3.58795-2.796131 6.507529-6.231064 6.507529h-37.45939z" fill="#282d33"/><path d="m200.732472 138.982969h-12.732472v-49.982969h62v49.982969h-37.716419l-11.551109 10.017031z" fill="#baaaf4"/><path d="m228.79726 114.005208v-3.202257c0-.993923-.847488-1.802951-1.894064-1.802951h-27.008219c-1.043835 0-1.894977.809028-1.894977 1.802951v6.983507 9.410591c0 1.00434.851142 1.802951 1.894977 1.802951h27.008219c1.046576 0 1.894064-.798611 1.894064-1.802951v-3.203993l10.20274 4.81684v-7.385417-1.209201-1.220486-9.809896z" fill="#fff"/><path d="m198.666217 110.659177c-.034197 0-.066593.034375-.066593.070608v17.546934c0 .049239.034196.071536.066593.071536h26.613817c.032397 0 .066593-.018581.066593-.071536v-6.426227l10.053749 5.15436v-15.007846l-10.053749 5.159005v-6.426226c0-.038091-.030596-.070608-.066593-.070608zm40.333783 22.340823-10.053749-5.155289v.432008c0 2.0885-1.645028 3.787729-3.666217 3.787729h-26.613817c-2.021189 0-3.666217-1.699229-3.666217-3.787729v-17.546934c0-2.087572 1.645028-3.786801 3.666217-3.786801h26.613817c2.021189 0 3.666217 1.699229 3.666217 3.786801v.42922l10.053749-5.159005z" fill="#282d33"/><path d="m205.501375 107c3.585701 0 6.498625-2.909052 6.498625-6.5 0-3.5891145-2.912924-6.5-6.498625-6.5-3.587534 0-6.501375 2.9108855-6.501375 6.5 0 3.590948 2.913841 6.5 6.501375 6.5" fill="#fff"/><path d="m204.00132 96.5195777c-2.471759 0-4.481549 2.0096788-4.481549 4.4804223 0 2.470744 2.00979 4.480422 4.481549 4.480422 2.469999 0 4.478909-2.009678 4.478909-4.480422 0-2.4707435-2.00891-4.4804223-4.478909-4.4804223m0 12.4804223c-4.412033 0-8.00132-3.589089-8.00132-8 0-4.4109107 3.589287-8 8.00132-8 4.410273 0 7.99868 3.5890893 7.99868 8 0 4.410911-3.588407 8-7.99868 8" fill="#282d33"/><path d="m220.506415 107c3.592274 0 6.493585-2.909052 6.493585-6.5 0-3.5891145-2.901311-6.5-6.493585-6.5-3.594107 0-6.506415 2.9108855-6.506415 6.5 0 3.590948 2.912308 6.5 6.506415 6.5" fill="#fff"/><path d="m219.006159 96.5195777c-2.473991 0-4.486968 2.0096788-4.486968 4.4804223 0 2.470744 2.012977 4.480422 4.486968 4.480422 2.467832 0 4.47465-2.009678 4.47465-4.480422 0-2.4707435-2.006818-4.4804223-4.47465-4.4804223m0 12.4804223c-4.414825 0-8.006159-3.589089-8.006159-8 0-4.4109107 3.591334-8 8.006159-8 4.407786 0 7.993841 3.5890893 7.993841 8 0 4.410911-3.586055 8-7.993841 8" fill="#282d33"/><path d="m145 25.500447c0 12.4275412-10.075187 22.499553-22.499553 22.499553-12.426154 0-22.500447-10.0720118-22.500447-22.499553 0-12.4266474 10.074293-22.500447 22.500447-22.500447 12.424366 0 22.499553 10.0737996 22.499553 22.500447" fill="#fff"/><path d="m121.500451 3.68059773c-11.520289 0-20.893598 9.56495337-20.893598 21.31986237s9.373309 21.3189422 20.893598 21.3189422c11.520288 0 20.892696-9.5640332 20.892696-21.3189422s-9.372408-21.31986237-20.892696-21.31986237m0 46.31940227c-13.509468 0-24.500451-11.2147813-24.500451-24.9995399 0-13.7847587 10.990983-25.0004601 24.500451-25.0004601 13.508566 0 24.499549 11.2157014 24.499549 25.0004601 0 13.7847586-10.990983 24.9995399-24.499549 24.9995399" fill="#282d33"/><path d="m138 25.0004468c0 8.8366144-7.164326 15.9995532-15.999553 15.9995532-8.836121 0-16.000447-7.1629388-16.000447-15.9995532 0-8.8366145 7.164326-16.0004468 16.000447-16.0004468 8.835227 0 15.999553 7.1638323 15.999553 16.0004468" fill="#f8c44f"/><path d="m129 23.000477c0 3.3140949-2.685428 5.999523-6.000477 5.999523-3.312187 0-5.999523-2.6854281-5.999523-5.999523 0-3.313141 2.687336-6.000477 5.999523-6.000477 3.315049 0 6.000477 2.687336 6.000477 6.000477" fill="#fff"/><path d="m121.499548 18.6190361c-2.139755 0-3.880512 1.7416612-3.880512 3.8814163s1.740757 3.8805115 3.880512 3.8805115 3.881416-1.7407564 3.881416-3.8805115-1.741661-3.8814163-3.881416-3.8814163m0 11.3809639c-4.134749 0-7.499548-3.3647988-7.499548-7.4995476 0-4.1356536 3.364799-7.5004524 7.499548-7.5004524 4.135653 0 7.500452 3.3647988 7.500452 7.5004524 0 4.1347488-3.364799 7.4995476-7.500452 7.4995476" fill="#282d33"/><path d="m127.285974 29h-8.570131c-3.155887 0-5.715843 2.2662971-5.715843 5.0621479v.4112492c2.613554 2.1801842 6.12827 3.5266029 10 3.5266029 3.875363 0 7.386446-1.3464187 10-3.5266029v-.4112492c0-2.7958508-2.557231-5.0621479-5.714026-5.0621479" fill="#fff"/><path d="m113.704797 34.8215768c2.334871 2.0875321 5.250923 3.226635 8.295203 3.226635s5.960332-1.1391029 8.295203-3.226635c-.175277-2.164592-1.876384-3.8697886-3.942804-3.8697886h-8.702953c-2.067343 0-3.769372 1.7051966-3.944649 3.8697886m8.295203 7.1784232c-4.251845 0-8.308118-1.7279194-11.419742-4.8656392l-.580258-.5858526v-1.3584272c0-4.5159059 3.431734-8.190081 7.649446-8.190081h8.702953c4.216789 0 7.647601 3.6741751 7.647601 8.190081v1.3584272l-.580258.5858526c-3.111624 3.1377198-7.166974 4.8656392-11.419742 4.8656392" fill="#282d33"/><path d="m167 19h3v-12h-3z" fill="#282d33"/><path d="m163 14h12v-3h-12z" fill="#282d33"/><path d="m77 86h3v-13h-3z" fill="#282d33"/><path d="m72 83h13v-3h-13z" fill="#282d33"/><path d="m478 140h117v-3h-117z" fill="#282d33"/><path d="m478 152h117v-3h-117z" fill="#282d33"/><path d="m478 162h102v-3h-102z" fill="#282d33"/><path d="m430.625111 239.374889h33.749778v-33.749778h-33.749778zm-3.625111 3.625111h41v-41h-41z" fill="#282d33"/><path d="m429.566942 242-2.566942-2.566942 37.433058-37.433058 2.566942 2.566942z" fill="#282d33"/><path d="m464.433058 242-37.433058-37.433058 2.566942-2.566942 37.433058 37.433058z" fill="#282d33"/><path d="m478 205h117v-3h-117z" fill="#282d33"/><path d="m478 216h117v-3h-117z" fill="#282d33"/><path d="m478 226h102v-3h-102z" fill="#282d33"/><path d="m85.9352684 150.035465.8228518-.82495c2.9891731-2.995871 2.9891731-7.854114 0-10.850909l-.1124164-.112703c-2.9882516-2.995871-7.8341396-2.995871-10.8251555 0l-.8200876.823102-.8219304-.823102c-2.989173-2.995871-7.8359825-2.995871-10.8233126 0l-.1133379.112703c-2.9891731 2.996795-2.9891731 7.855038 0 10.850909l.8219304.82495 10.9366505 10.964535z" fill="#baaaf4"/><path d="m426 97h31v29.831803h-7.019521v5.168197l-7.601285-5.168197h-16.379194z" fill="#f8c44f"/><path d="m448.249299 113.421408.469968-.495661c1.707644-1.796528 1.707644-4.711668 0-6.510125l-.064128-.067502c-1.707644-1.797493-4.477069-1.797493-6.185629 0l-.469052.494696-.469968-.494696c-1.707644-1.797493-4.477069-1.797493-6.184713 0l-.065044.067502c-1.707644 1.798457-1.707644 4.713597 0 6.510125l.469052.495661 6.250673 6.578592z" fill="#fff"/><path d="m437.376 107.728414c-.690519 0-1.339104.269378-1.828338.756869l-.075481.0755c-.998038.999215-.998038 2.639717.009318 3.647321l5.517627 5.519918 5.514832-5.518986c.489234-.489354.758545-1.138098.758545-1.828787s-.269311-1.340365-.756682-1.829719l-.073618-.073636c-.95983-.958203-2.670751-.967524-3.648287.008389l-1.79479 1.796163-1.795721-1.796163c-.488302-.487491-1.137819-.756869-1.827405-.756869zm3.623126 15.271586-8.154831-8.157771c-2.459215-2.458889-2.459215-6.464138.000932-8.926756l.076414-.074568c1.182548-1.183772 2.767666-1.840905 4.454359-1.840905 1.314874 0 2.569177.399872 3.623126 1.142759 1.05395-.742887 2.307321-1.142759 3.623127-1.142759 1.686692 0 3.27181.657133 4.463677 1.849294l.07455.074568c1.182549 1.183771 1.83952 2.76928 1.83952 4.456387 0 1.686176-.656971 3.271684-1.848838 4.463844z" fill="#282d33"/><path d="m537 71.8257778c0 2.3057778-1.935603 4.1742222-4.319227 4.1742222h-.361546c-2.386384 0-4.319227-1.8684444-4.319227-4.1742222v-7.6515556c0-2.3048889 1.932843-4.1742222 4.319227-4.1742222h.361546c2.383624 0 4.319227 1.8693333 4.319227 4.1742222z" fill="#fff"/><path d="m532.314663 61.6363636c-1.401582 0-2.541899 1.0990909-2.541899 2.45v7.8263637c0 1.3518182 1.140317 2.4509091 2.541899 2.4509091h.370674c1.401582 0 2.541899-1.0990909 2.541899-2.4509091v-7.8263637c0-1.3509091-1.140317-2.45-2.541899-2.45zm.370674 16.3636364h-.370674c-3.481318 0-6.314663-2.7309091-6.314663-6.0872727v-7.8263637c0-3.3563636 2.833345-6.0863636 6.314663-6.0863636h.370674c3.481318 0 6.314663 2.73 6.314663 6.0863636v7.8263637c0 3.3563636-2.833345 6.0872727-6.314663 6.0872727z" fill="#282d33"/><path d="m479 124v-11.111111c0-4.910592 4.275382-8.888889 9.549191-8.888889h41.903412c5.273809 0 9.547397 3.978297 9.547397 8.888889v11.111111z" fill="#fff"/><path d="m543 123h-3.666667v-10.660703c0-3.703858-3.553916-6.717827-7.92275-6.717827h-42.819333c-4.36975 0-7.924583 3.013969-7.924583 6.717827v10.660703h-3.666667v-10.660703c0-5.701099 5.199333-10.339297 11.59125-10.339297h42.819333c6.390084 0 11.589417 4.638198 11.589417 10.339297z" fill="#282d33"/><path d="m532 78.2136968c0 12.0323496-9.848496 21.7863032-21.999537 21.7863032-12.151042 0-22.000463-9.7539536-22.000463-21.7863032v-17.4283097c0-12.0323496 9.849421-21.7853871 22.000463-21.7853871 12.151041 0 21.999537 9.7530375 21.999537 21.7853871z" fill="#fff"/><path d="m511 39.6835022c-11.180327 0-20.276328 8.9978749-20.276328 20.0566692v17.5187363c0 11.0597152 9.096001 20.0575901 20.276328 20.0575901s20.276328-8.9978749 20.276328-20.0575901v-17.5187363c0-11.0587943-9.096001-20.0566692-20.276328-20.0566692m0 61.3164978c-13.233932 0-24-10.6499256-24-23.7410923v-17.5187363c0-13.0902458 10.766068-23.7401714 24-23.7401714s24 10.6499256 24 23.7401714v17.5187363c0 13.0911667-10.766068 23.7410923-24 23.7410923" fill="#282d33"/><path d="m501.577236 37c-3.50387 0-6.583415 1.8242697-8.374504 4.5837079h-3.44013c-4.286049 0-7.762602 3.5158651-7.762602 7.8544943v28.5617978h5.463415v-17.0449438c0-3.052427 2.446699-5.5280899 5.463414-5.5280899h3.186992 26.861789 5.00813c5.532618 0 10.01626-4.5376405 10.01626-10.1348315v-8.2921348z" fill="#baaaf4"/><path d="m484.664122 75.371134h1.832061v-14.9690721c0-4.001732 3.287634-7.257732 7.328244-7.257732h35.267176c4.54626 0 8.244275-3.662433 8.244275-8.1649485v-6.3505154h-34.80916c-2.781985 0-5.359695 1.3807835-6.89313 3.6950928l-.543206.8183092h-4.449161c-3.294961 0-5.977099 2.6554227-5.977099 5.9195877zm5.496183 3.628866h-9.160305v-29.9381443c0-5.2645773 4.325496-9.5484536 9.641221-9.5484536h2.522748c2.25252-2.8432165 5.683054-4.5134021 9.362749-4.5134021h38.473282v9.9793814c0 6.5029279-5.34229 11.7938145-11.908397 11.7938145h-35.267176c-2.020763 0-3.664122 1.6275464-3.664122 3.628866z" fill="#282d33"/><path d="m487 61c-1.90066.2189822-5 1.9842467-5 4.1526172v7.6947656c0 2.1701581 3.09934 3.9345288 5 4.1526172z" fill="#fff"/><path d="m486.47439 62.3810718c-1.076192.5363298-1.94878 1.2911313-1.94878 1.7656802v7.7073913c0 .4736536.872588 1.2293505 1.94878 1.7656803zm3.52561 15.6189282-1.944374-.2041456c-2.883948-.3035322-7.055626-2.5939025-7.055626-5.9417111v-7.7073913c0-3.3469132 4.171678-5.6372834 7.055626-5.941711l1.944374-.205041z" fill="#282d33"/><path d="m514 114h3v-9h-3z" fill="#282d33"/><path d="m506 114h3v-9h-3z" fill="#282d33"/><path d="m655 153.50045c0 5.798783-4.700767 10.49955-10.49955 10.49955s-10.50045-4.700767-10.50045-10.49955 4.701667-10.50045 10.50045-10.50045 10.49955 4.701667 10.49955 10.50045" fill="#f8c44f"/><path d="m644.500457 144.658581c-4.875059 0-8.841876 3.966817-8.841876 8.841876 0 4.875974 3.966817 8.840962 8.841876 8.840962 4.87506 0 8.840962-3.964988 8.840962-8.840962 0-4.875059-3.965902-8.841876-8.840962-8.841876m0 21.341419c-6.892767 0-12.500457-5.605861-12.500457-12.499543 0-6.892767 5.60769-12.500457 12.500457-12.500457 6.891853 0 12.499543 5.60769 12.499543 12.500457 0 6.893682-5.60769 12.499543-12.499543 12.499543" fill="#282d33"/><path d="m671 184.826667c0 2.305777-1.935998 4.173333-4.32011 4.173333h-.36162c-2.385032 0-4.31827-1.867556-4.31827-4.173333v-7.651556c0-2.305778 1.933238-4.175111 4.31827-4.175111h.36162c2.384112 0 4.32011 1.869333 4.32011 4.175111z" fill="#fff"/><path d="m666.313693 173.636364c-1.400842 0-2.540382 1.099091-2.540382 2.450909v7.826363c0 1.350909 1.13954 2.45 2.540382 2.45h.370728c1.401785 0 2.542268-1.099091 2.542268-2.45v-7.826363c0-1.351818-1.140483-2.450909-2.542268-2.450909zm.370728 16.363636h-.370728c-3.48088 0-6.313693-2.730909-6.313693-6.086364v-7.826363c0-3.356364 2.832813-6.087273 6.313693-6.087273h.370728c3.481822 0 6.315579 2.730909 6.315579 6.087273v7.826363c0 3.355455-2.833757 6.086364-6.315579 6.086364z" fill="#282d33"/><path d="m613 237v-11.111006c0-4.909186 4.276279-8.888994 9.549191-8.888994h41.903412c5.273809 0 9.547397 3.979808 9.547397 8.888994v11.111006z" fill="#fff"/><path d="m677 235h-3.666667v-10.660689c0-3.704444-3.553916-6.718153-7.92275-6.718153h-42.819333c-4.36975 0-7.924583 3.013709-7.924583 6.718153v10.660689h-3.666667v-10.660689c0-5.701513 5.199333-10.339311 11.59125-10.339311h42.819333c6.390084 0 11.589417 4.637798 11.589417 10.339311z" fill="#282d33"/><path d="m667 189.213697c0 12.032349-9.848703 21.786303-22 21.786303-12.149447 0-22-9.753954-22-21.786303v-17.429226c0-12.030517 9.850553-21.784471 22-21.784471 12.151297 0 22 9.753954 22 21.784471z" fill="#fff"/><path d="m644.999535 150.683502c-11.180544 0-20.27579 8.996954-20.27579 20.054828v17.520578c0 11.058794 9.095246 20.05759 20.27579 20.05759 11.180543 0 20.27672-8.998796 20.27672-20.05759v-17.520578c0-11.057874-9.096177-20.054828-20.27672-20.054828m0 61.316498c-13.233258 0-23.999535-10.649926-23.999535-23.741092v-17.520578c0-13.089325 10.766277-23.73833 23.999535-23.73833 13.234188 0 24.000465 10.649005 24.000465 23.73833v17.520578c0 13.091166-10.766277 23.741092-24.000465 23.741092" fill="#282d33"/><path d="m621 173c-1.901771.218982-5 1.983353-5 4.152617v7.694766c0 2.170158 3.098229 3.933635 5 4.152617z" fill="#fff"/><path d="m621.474045 174.382274c-1.076298.537153-1.94809 1.291853-1.94809 1.765443v7.706356c0 .47359.871792 1.229186 1.94809 1.764548zm3.525955 15.617726-1.944564-.205013c-2.884231-.303492-7.055436-2.59445-7.055436-5.940914v-7.706356c0-3.346464 4.171205-5.636526 7.054554-5.940913l1.945446-.206804z" fill="#282d33"/><path d="m642 225h3v-3h-3z" fill="#282d33"/><path d="m644.999537 150c-12.149702 0-21.999537 10.190684-21.999537 22.758907v4.241093h28.602174l3.844831-6.889503 3.844831 6.889503h7.708164v-4.241093c0-12.568223-9.84891-22.758907-22.000463-22.758907" fill="#f8c44f"/><path d="m660.456034 172.398522h4.820294v-2.188798c0-10.811637-9.096932-19.608246-20.277259-19.608246-11.179396 0-20.275397 8.796609-20.275397 19.608246v2.188798h25.84508l4.943175-8.281598zm8.543966 3.601478h-10.693456l-2.794617-4.68012-2.794616 4.68012h-31.717311v-5.790276c0-12.797852 10.766999-23.209724 23.999069-23.209724 13.233932 0 24.000931 10.411872 24.000931 23.209724z" fill="#282d33"/><path d="m710.00367 162c-13.257798 0-24.00367 10.714351-24.00367 23.939821 0 5.908084 2.154128 11.303695 5.713761 15.482182l-5.595412 10.577997 10.174312-6.430624c3.886238 2.708787 8.604587 4.310266 13.711009 4.310266 13.252293 0 23.99633-10.719842 23.99633-23.939821 0-13.22547-10.744037-23.939821-23.99633-23.939821" fill="#f8c44f"/><path d="m717 174-16 25z" fill="#f8c44f"/><path d="m706 182.434153c0 1.968476-1.791285 3.565847-4.000502 3.565847-2.208213 0-3.999498-1.597371-3.999498-3.565847v-4.868306c0-1.968476 1.791285-3.565847 3.999498-3.565847 2.209217 0 4.000502 1.597371 4.000502 3.565847z" fill="#f8c44f"/><path d="m721 194.43299c0 1.971313-1.791285 3.56701-4.000502 3.56701-2.208213 0-3.999498-1.595697-3.999498-3.56701v-4.86598c0-1.96952 1.791285-3.56701 3.999498-3.56701 2.209217 0 4.000502 1.59749 4.000502 3.56701z" fill="#f8c44f"/><path d="m652.5 116c-8.546161 0-15.5-6.953103-15.5-15.499526 0-8.5473715 6.953839-15.500474 15.5-15.500474s15.5 6.9531025 15.5 15.500474c0 8.546423-6.953839 15.499526-15.5 15.499526" fill="#fff"/><path d="m650.5 87.5999673c-7.112441 0-12.900131 5.7869474-12.900131 12.9004827 0 7.112635 5.78769 12.899583 12.900131 12.899583s12.900131-5.786948 12.900131-12.899583c0-7.1135353-5.78769-12.9004827-12.900131-12.9004827m0 29.4000327c-9.097769 0-16.5-7.401533-16.5-16.49955 0-9.0980173 7.402231-16.50045 16.5-16.50045s16.5 7.4024327 16.5 16.50045c0 9.098017-7.402231 16.49955-16.5 16.49955" fill="#282d33"/><path d="m652.000937 93.7498828c-3.447079 0-6.251054 2.8039749-6.251054 6.2510542 0 3.446143 2.803975 6.24918 6.251054 6.24918 3.446143 0 6.24918-2.803037 6.24918-6.24918 0-3.4470793-2.803037-6.2510542-6.24918-6.2510542m0 16.2501172c-5.51514 0-10.000937-4.48486-10.000937-9.999063 0-5.5142022 4.485797-10.000937 10.000937-10.000937 5.513266 0 9.999063 4.4867348 9.999063 10.000937 0 5.514203-4.485797 9.999063-9.999063 9.999063" fill="#282d33"/><path d="m707.500949 88c-8.548583 0-15.500949-6.9528897-15.500949-15.5 0-8.5452124 6.952366-15.5 15.500949-15.5 8.546685 0 15.499051 6.9547876 15.499051 15.5 0 8.5471103-6.952366 15.5-15.499051 15.5" fill="#fff"/><path d="m705.5009 59.5998691c-7.112829 0-12.900835 5.7867896-12.900835 12.9001309s5.788006 12.9001309 12.900835 12.9001309c7.111929 0 12.899035-5.7867896 12.899035-12.9001309s-5.787106-12.9001309-12.899035-12.9001309m0 29.4001309c-9.098265 0-16.5009-7.4022308-16.5009-16.5s7.402635-16.5 16.5009-16.5c9.097365 0 16.4991 7.4022308 16.4991 16.5s-7.401735 16.5-16.4991 16.5" fill="#282d33"/><path d="m714 73.000923c0 4.4185993-3.582324 7.999077-7.999077 7.999077-4.418599 0-8.000923-3.5804777-8.000923-7.999077 0-4.4176762 3.582324-8.000923 8.000923-8.000923 4.416753 0 7.999077 3.5832468 7.999077 8.000923" fill="#baaaf4"/><path d="m707.500949 145c-8.548583 0-15.500949-6.952366-15.500949-15.500949 0-8.546685 6.952366-15.499051 15.500949-15.499051 8.546685 0 15.499051 6.952366 15.499051 15.499051 0 8.548583-6.952366 15.500949-15.499051 15.500949" fill="#fff"/><path d="m705.5009 115.600065c-7.112829 0-12.900835 5.786206-12.900835 12.899035 0 7.113729 5.788006 12.900835 12.900835 12.900835 7.111929 0 12.899035-5.787106 12.899035-12.900835 0-7.112829-5.787106-12.899035-12.899035-12.899035m0 29.399935c-9.098265 0-16.5009-7.402635-16.5009-16.5009 0-9.097365 7.402635-16.4991 16.5009-16.4991 9.097365 0 16.4991 7.401735 16.4991 16.4991 0 9.098265-7.401735 16.5009-16.4991 16.5009" fill="#282d33"/><path d="m714 128.999077c0 4.418599-3.582324 8.000923-7.999077 8.000923-4.418599 0-8.000923-3.582324-8.000923-8.000923 0-4.41583 3.582324-7.999077 8.000923-7.999077 4.416753 0 7.999077 3.583247 7.999077 7.999077" fill="#f8c44f"/><path d="m691.371735 125-27.371735-13.825467 1.628265-3.174533 27.371735 13.825467z" fill="#282d33"/><path d="m663.638459 93-1.638459-3.1908574 27.361541-13.8091426 1.638459 3.1917527z" fill="#282d33"/><path d="m404.731739 285h-3.731739v-236.4289987c0-11.8944015 9.865785-21.5710013 21.99207-21.5710013 12.135615 0 22.00793 9.6765998 22.00793 21.5710013v46.2118206h-3.731739v-46.2118206c0-9.8777195-8.19863-17.9142796-18.276191-17.9142796-10.069164 0-18.260331 8.0365601-18.260331 17.9142796z" fill="#282d33"/><path d="m422.257851 67.5237366c.097911-.8723922.162278-1.7512533.162278-2.6504456 0-12.3595048-9.824648-22.382773-21.952926-22.382773-2.056132 0-4.043364.3095883-5.934497.8492886-2.150417-16.0024813-15.60684-28.3398066-31.90631-28.3398066-17.794426 0-32.218174 14.7068311-32.218174 32.8357682 0 .0720832.002719.1460148.002719.2199463-9.795637 1.1385457-17.410941 9.6083274-17.410941 19.9023699 0 11.0684753 8.800209 20.0419156 19.660176 20.0419156h33.087588 9.677782 8.666941 19.280317 17.71374c.00272-.012938.00816-.0277243.015412-.0443589.281041.0231036.561176.0443589.847656.0443589 5.551013 0 10.050388-4.5874519 10.050388-10.2496835 0-5.5504102-4.335284-10.0630064-9.742149-10.2265799" fill="#baaaf4"/><path d="m416.87691 67-3.468355-.4329948c.06722-.6221947.09952-1.1427297.09952-1.5907852 0-7.2846669-5.494544-13.2110478-12.2488-13.2110478-1.076385 0-2.192055.1731979-3.315582.5120634l-.943693-3.6249195c1.431689-.4329948 2.865124-.6523161 4.259275-.6523161 8.680053 0 15.740725 7.6150607 15.740725 16.97622 0 .5939559-.040157 1.2566262-.12309 2.02378" fill="#fff"/><path d="m336.005519 47-.005519-.218679c-.00092-14.7869125 12.111505-26.781321 27-26.781321v3.6599004c-12.859333 0-23.321568 10.3520282-23.321568 23.0765868l.004599.1738452z" fill="#fff"/><path d="m322.668948 68h-3.668948c0-7.6817621 5.409864-14.1306608 12.584492-15l.415508 3.8730427c-5.319975.6451822-9.331052 5.4284972-9.331052 11.1269573" fill="#fff"/><path d="m361.281044 68-6.782005-6.6588995-6.779122 6.6588995-2.719917-2.6733842 9.499039-9.3266158 9.500961 9.3266158z" fill="#282d33"/><path d="m353.002248 88-.002248-28h2.997752l.002248 28z" fill="#282d33"/><path d="m369.500961 120-9.500961-9.326195 2.717033-2.673805 6.783928 6.658058 6.780083-6.658058 2.718956 2.67286z" fill="#282d33"/><path d="m365.002248 116-.002248-28h2.997752l.002248 28z" fill="#282d33"/><path d="m50.9999959 80.9972353c-.0046194-6.419388-2.5000335-12.449862-7.0316906-16.9745652-4.5372004-4.542255-10.5821815-7.035553-17.0161183-7.02262-6.4071442.0175519-12.4253326 2.5145451-16.9357404 7.0281628-9.35526193 9.3616458-9.35803359 24.5948746.008315 33.9491302 4.5418198 4.5413309 10.5932682 7.0337059 17.0290527 7.0226199 6.4052964-.01478 12.4133221-2.512697 16.9255777-7.0244675 4.5288854-4.529322 7.0242994-10.5597961 7.0206039-16.9782602" fill="#fff"/><path d="m25.0022322 59.5739814c-5.7680274.0160829-11.1384139 2.2453538-15.16486342 6.2741244-4.03985314 4.042173-6.26306805 9.424589-6.26306805 15.1572552.00089357 5.7326662 2.22768278 11.1132952 6.27021665 15.1510007 4.04342742 4.0430663 9.42989832 6.2696573 15.16754412 6.2696573v1.78699l.0375302-1.78699c5.7108386-.012509 11.0776508-2.239993 15.1094618-6.2705508 4.0434274-4.0448535 6.2702166-9.428163 6.2666423-15.1563617-.0044679-5.7353467-2.2330442-11.1177627-6.2773652-15.1554682-4.0398532-4.04396-9.4182818-6.2696569-15.1460984-6.2696569zm.0098293 46.4260186c-6.6928776 0-12.9764979-2.598284-17.693681-7.31594-4.71807666-4.7105075-7.31748669-10.9899928-7.31838027-17.678699-.00089357-6.6851323 2.59494216-12.9664046 7.30855094-17.6840601 4.70020513-4.7015725 10.96416673-7.3025375 17.63917293-7.3213009 6.7375565 0 13.0140281 2.5982845 17.7276369 7.31594 4.7180767 4.7105075 7.3201674 10.9899928 7.3246353 17.680486.0035743 6.6842388-2.5940486 12.9646176-7.3139124 17.6867405-4.704673 4.7033595-10.9659539 7.3016445-17.6293436 7.3168335z" fill="#282d33"/><path d="m39.6038564 93.5453672c-3.5075376 3.5203336-8.1583958 5.4536997-13.1057046 5.4546235-10.201227.010161-18.50092167-8.288626-18.49815111-18.4930672 0-4.923479 1.91630872-9.5578305 5.39891121-13.0550709 3.50292-3.5175624 8.1528546-5.4509285 13.0927752-5.4518523 4.9371501-.0009237 9.5778495 1.9185865 13.0779989 5.4241404 3.4992259 3.4935455 5.4256934 8.1436004 5.430311 13.0735455.0027706 4.9188603-1.9135381 9.5513644-5.3961406 13.047681" fill="#baaaf4"/><path d="m12.5331527 80h-3.5331527c0-3.9914087 1.5554705-7.749794 4.3793428-10.5822643 2.838005-2.8483583 6.6096455-4.4177357 10.6206572-4.4177357v3.5306579c-3.0632434 0-5.9462961 1.199541-8.1174184 3.3788396-2.1596397 2.1669412-3.3494289 5.0391314-3.3494289 8.0905025" fill="#fff"/><path d="m34 141h-15v-23l14.9980279.00093z" fill="#f8c44f"/><path d="m20 118 .0016959-4 8.9983041.000769v3.997692z" fill="#fff"/><path d="m22.5582318 119-3.5582318-.001944.0026687-6.998056 12.9973313.000972v6.996111h-3.5582318v-3.107222l-5.8826468-.000972z" fill="#282d33"/><path d="m29 141c0 .714688 0 1.431062-.0016959 2.148279-2.4819107 2.469383-6.5121537 2.469383-8.9983041-.002529v-2.144907z" fill="#fff"/><path d="m25.5022237 148h-.0008895c-2.2593226 0-4.3825521-1.027275-5.9800889-2.890898l-.5212453-.608064v-3.5h3.5579884v1.702786c.8450222.742959 1.8679439 1.145568 2.9433458 1.145568h.0008895c1.075402 0 2.0956552-.401571 2.9388984-1.143492l.0008895-1.7059h3.5579884l-.003558 3.505188-.5185768.605989c-1.5948683 1.862585-3.7172083 2.888823-5.9756415 2.888823" fill="#282d33"/><path d="m27 113h3v-8h-3z" fill="#282d33"/><path d="m20 113h3v-8h-3z" fill="#282d33"/><path d="m554 32h15v-3h-15z" fill="#282d33"/><path d="m355.999519 144.849547c-1.185661 0-2.149972.964311-2.149972 2.149972 0 1.18566.964311 2.150934 2.149972 2.150934 1.18566 0 2.150934-.965274 2.150934-2.150934 0-1.185661-.965274-2.149972-2.150934-2.149972m0 8.150453c-3.308686 0-5.999519-2.691796-5.999519-6.000481 0-3.307723 2.690833-5.999519 5.999519-5.999519 3.308685 0 6.000481 2.691796 6.000481 5.999519 0 3.308685-2.691796 6.000481-6.000481 6.000481" fill="#282d33"/><path d="m375.999038 144.849547c-1.185566 0-2.1498.964311-2.1498 2.149972 0 1.18566.964234 2.150934 2.1498 2.150934 1.186527 0 2.151724-.965274 2.151724-2.150934 0-1.185661-.965197-2.149972-2.151724-2.149972m0 8.150453c-3.308421 0-5.999038-2.691796-5.999038-6.000481 0-3.307723 2.690617-5.999519 5.999038-5.999519 3.30842 0 6.000962 2.691796 6.000962 5.999519 0 3.308685-2.692542 6.000481-6.000962 6.000481" fill="#282d33"/><path d="m360 148h11v-3h-11z" fill="#282d33"/><path d="m359.582299 144-3.82459-1.142148 1.036244-3.217292-6.112335-17.647878-4.681618-1.28576 1.098318-3.706922 6.714057 1.843823 7.187625 20.753364z" fill="#282d33"/><path d="m360.117457 137.368491h20.163579l2.827274-9.736982h-26.086556zm20.64417 3.631509h-23.355216l-5.406411-17h36l-4.158352 14.323578c-.15497 1.523418-1.451918 2.676422-3.080021 2.676422z" fill="#282d33"/></g></svg>