<?xml version="1.0" encoding="UTF-8"?>
<svg width="185px" height="160px" viewBox="0 0 185 160" version="1.1" xmlns="http://www.w3.org/2000/svg" xmlns:xlink="http://www.w3.org/1999/xlink">
    <!-- Generator: Sketch 49.2 (51160) - http://www.bohemiancoding.com/sketch -->
    <title>Integrity And Principles</title>
    <desc>Created with Sketch.</desc>
    <defs>
        <linearGradient x1="50%" y1="2.84199617%" x2="50%" y2="98.5032685%" id="linearGradient-1">
            <stop stop-color="#F84F8C" offset="0%"></stop>
            <stop stop-color="#F8817C" offset="100%"></stop>
        </linearGradient>
    </defs>
    <g id="Page-1" stroke="none" stroke-width="1" fill="none" fill-rule="evenodd">
        <g id="Mobile_1" transform="translate(-59.000000, -3221.000000)" fill="#795be6" fill-rule="nonzero">
            <g id="depoimentos-copy-5" transform="translate(0.000000, 2841.000000)">
                <g id="Integrity-And-Principles" transform="translate(59.000000, 380.000000)">
                    <path d="M169.408851,47.9864865 C169.408851,21.4864865 142.124341,0 108.632244,0 C75.1401475,0 48,21.4864865 48,47.9864865 C48,52.2837838 48.4330875,56.4378378 49.1548999,60.5918919 L52.4752371,59.8756757 C51.7534247,56.0081081 51.3203372,51.9972973 51.3203372,47.9864865 C51.3203372,23.4918919 77.0168599,3.43783784 108.487882,3.43783784 C139.958904,3.43783784 165.799789,23.3486486 165.799789,47.9864865 L165.799789,63.7432432 L179.947313,87.8081081 L165.799789,93.1081081 L165.799789,129.205405 C165.799789,132.643243 162.91254,135.508108 159.44784,135.508108 L128.987355,135.508108 L128.987355,138.945946 L135.772392,138.945946 L133.462592,158.57027 L136.782929,159 L139.092729,139.089189 L159.44784,139.089189 C164.933614,139.089189 169.264489,134.791892 169.264489,129.348649 L169.264489,95.4 L185,89.527027 L169.264489,62.7405405 L169.264489,47.9864865 L169.408851,47.9864865 Z" id="Shape"></path>
                    <path d="M77.5,67 C82.1101695,67 86,63.2542373 86,58.5 C86,53.8898305 82.2542373,50 77.5,50 C72.8898305,50 69,53.7457627 69,58.5 C69,63.2542373 72.7457627,67 77.5,67 Z M77.5,53.4576271 C80.2372881,53.4576271 82.5423729,55.7627119 82.5423729,58.5 C82.5423729,61.2372881 80.2372881,63.5423729 77.5,63.5423729 C74.7627119,63.5423729 72.4576271,61.2372881 72.4576271,58.5 C72.4576271,58.5 72.4576271,58.5 72.4576271,58.5 C72.4576271,55.7627119 74.6186441,53.4576271 77.5,53.4576271 Z" id="Shape"></path>
                    <path d="M38.6368715,128.789071 L48.2234637,117.621858 L40.6703911,117.621858 L26.1452514,87.4131148 L63.7653631,68.2284153 C65.2178771,70.3759563 67.1061453,72.0939891 69.4301676,73.3825137 L69.4301676,146.112568 L49.2402235,146.112568 L49.2402235,156.563934 L33.2625698,156.563934 L33.2625698,160 L122.592179,160 L122.592179,156.563934 L106.614525,156.563934 L106.614525,146.112568 L86.5698324,146.112568 L86.5698324,73.3825137 C93.9776536,69.2306011 97.027933,60.4972678 93.9776536,52.7661202 L128.256983,35.1562842 L115.47486,62.0721311 L107.921788,62.0721311 L117.363128,73.2393443 L146.413408,73.2393443 L156,62.0721311 L148.446927,62.0721311 L132.614525,29 L92.3798883,49.6163934 C87.2960894,41.7420765 76.6927374,39.4513661 68.849162,44.4622951 C61.877095,48.9005464 59.1173184,57.4907104 62.3128492,65.0786885 L23.2402235,85.1224044 L22.6592179,85.4087432 L7.55307263,117.621858 L0,117.621858 L9.44134078,128.789071 L38.6368715,128.789071 Z M130.145251,39.0218579 L130.145251,62.2153005 L119.251397,62.2153005 L130.145251,39.0218579 Z M144.815642,69.8032787 L118.960894,69.8032787 L115.184358,65.3650273 L148.592179,65.3650273 L144.815642,69.8032787 Z M133.631285,62.0721311 L133.631285,39.0218579 L144.52514,62.2153005 L133.631285,62.2153005 L133.631285,62.0721311 Z M103.128492,156.563934 L52.726257,156.563934 L52.726257,149.548634 L103.128492,149.548634 L103.128492,156.563934 Z M83.0837989,146.112568 L72.9162011,146.112568 L72.9162011,74.8142077 C76.2569832,75.9595628 79.7430168,75.9595628 83.0837989,74.8142077 L83.0837989,146.112568 Z M77.8547486,45.3213115 C85.4078212,45.3213115 91.5083799,51.3344262 91.5083799,58.779235 C91.5083799,66.2240437 85.4078212,72.2371585 77.8547486,72.2371585 C70.301676,72.2371585 64.2011173,66.2240437 64.2011173,58.779235 C64.2011173,58.779235 64.2011173,58.779235 64.2011173,58.779235 C64.2011173,51.3344262 70.301676,45.3213115 77.8547486,45.3213115 C78,45.3213115 78,45.3213115 77.8547486,45.3213115 Z M36.7486034,117.621858 L25.8547486,117.621858 L25.8547486,94.5715847 L36.7486034,117.621858 Z M22.3687151,94.2852459 L22.3687151,117.621858 L11.3296089,117.621858 L22.3687151,94.2852459 Z M40.6703911,121.057923 L37.0391061,125.496175 L11.0391061,125.496175 L7.26256983,121.057923 L40.6703911,121.057923 Z" id="Shape"></path>
                </g>
            </g>
        </g>
    </g>
</svg>