<svg height="225" viewBox="0 0 232 225" width="232" xmlns="http://www.w3.org/2000/svg"><g fill="#795be6" transform=""><path d="m21.4930111 162c-2.0222696 0-3.4930111 1.657895-3.4930111 3.5s1.6545842 3.5 3.4930111 3.5c2.0222696 0 3.4930111-1.657895 3.4930111-3.5.1838427-1.842105-1.4707415-3.5-3.4930111-3.5z"/><path d="m210.414386 66.8820679c0-36.8941842-37.729476-66.8820679-83.984363-66.8820679-46.2548862 0-83.9843623 29.9878837-83.9843623 66.8820679 0 29.9878836 12.6974198 45.7996771 23.943706 59.7940221 5.2603596 6.542811 10.3393276 12.722133 13.4229867 19.810178 7.7998436 17.810986 6.3487099 42.346527 6.3487099 42.710016-.3627834 17.447496-14.8741204 31.078353-32.106333 30.714863-16.6880376-.363489-30.292416-13.994346-30.6551994-30.714863v-5.452342h4.7161845c6.5301016 0 11.971853-5.270598 11.971853-11.995154v-16.538772h2.539484v-4.180129h-10.1579359v-13.812601h-4.1720094v13.812601h-13.9671618v-13.812601h-4.1720094v13.812601h-10.1579359v4.180129h2.53948397v16.538772c0 6.542811 5.26035966 11.995154 11.97185303 11.995154h4.7161845v5.452342c0 19.810178 15.9624707 35.803716 35.5527756 35.803716 19.7716966 0 35.7341673-15.993538 35.7341673-35.621971 0-1.090468 1.4511337-25.807754-6.7114933-44.527464-3.2650508-7.633279-8.5254105-13.994345-13.9671619-20.900646-10.8835027-13.449111-23.0367474-28.5339255-23.0367474-57.0678511 0-34.5315025 35.7341673-62.70193866 79.8123532-62.70193866 44.078186 0 79.812354 28.17043616 79.812354 62.70193866v21.8093699l19.771696 33.9862682-19.771696 7.451535v50.52504c0 5.088853-3.990618 9.087238-9.069586 9.087238h-42.808444v4.180129h9.795152l-3.26505 27.806947 4.172009.545234 3.265051-28.170436h28.478499c7.43706 0 13.422986-5.997577 13.241595-13.449112v-47.617124l21.767005-8.178514-21.767005-37.2576737v-20.7189014zm-203.70289265 105.0484651v-16.538772h29.02267395v16.538772c0 4.180129-3.4464425 7.63328-7.6184519 7.63328h-13.7857701c-4.1720094 0-7.61845195-3.271406-7.61845195-7.63328z"/><path d="m139.8845 71c2.001374-1.8148148 3.820805-3.6296296 5.458293-5.6259259 6.913839-7.8037037 9.279099-14.3370371 6.549953-18.8740741-1.273602-2.1777778-4.184692-4.7185185-11.280474-4.7185185-5.458293.1814815-10.916586 1.2703704-16.010994 2.9037037-2.729146-13.0666667-7.823553-22.6851852-15.101278-22.6851852s-12.3721318 9.6185185-15.1012785 22.6851852c-5.2763503-1.8148148-10.5527006-2.7222222-16.010994-2.9037037-6.9138383 0-10.0068713 2.5407407-11.2804731 4.7185185-2.5472036 4.537037-.3638862 11.0703704 6.5499521 18.8740741 1.6374881 1.9962963 3.4569192 3.8111111 5.4582935 5.6259259-2.0013743 1.8148148-3.8208054 3.6296296-5.4582935 5.6259259-6.9138383 7.8037037-9.2790988 14.3370371-6.5499521 18.8740741 1.2736018 2.1777778 4.1846917 4.718519 11.09853 4.718519 5.4582934-.181482 10.9165868-1.2703709 16.1929371-2.9037042 2.9110899 13.0666662 8.0054975 22.6851852 15.1012785 22.6851852s12.372132-9.618519 15.101278-22.6851852c5.094408 1.8148148 10.552701 2.7222222 16.010994 2.9037042 6.913839 0 10.006872-2.5407412 11.280474-4.718519 3.638862-6.1703704-2.183318-15.4259259-12.008246-24.5zm.909716-24.862963c3.820805 0 6.549952.9074074 7.459667 2.5407408 1.637488 2.7222222-.727772 7.9851852-6.004122 13.9740741-1.819432 1.9962962-3.638863 3.8111111-5.640237 5.6259259-2.91109-2.5407408-6.186066-4.9-9.642985-7.2592593-.363886-4.1740741-.727773-8.1666666-1.455545-11.9777778 4.912464-1.8148148 10.006871-2.7222222 15.283222-2.9037037zm-24.380378 36.6592593c-2.183317 1.2703704-4.548578 2.5407407-6.731895 3.6296296-2.183317-1.0888889-4.548578-2.3592592-6.731895-3.6296296s-4.3666348-2.7222222-6.5499522-3.9925926c-.1819431-2.5407407-.1819431-5.0814815-.1819431-7.6222222 0-2.5407408.1819431-5.262963.1819431-7.6222222 2.1833174-1.4518519 4.1846912-2.7222223 6.5499522-3.9925926 2.36526-1.2703704 4.548578-2.5407408 6.731895-3.6296297 2.183317 1.0888889 4.548578 2.3592593 6.731895 3.6296297 2.183318 1.2703703 4.366635 2.7222222 6.549952 3.9925926.181944 2.5407407.181944 5.0814814.181944 7.6222222 0 2.5407407-.181944 5.0814815-.181944 7.6222222-2.183317 1.2703704-4.366634 2.7222222-6.549952 3.9925926zm6.004123 1.0888889c-.363886 2.7222222-.545829 5.2629629-1.091659 7.6222222-2.36526-.9074074-4.730521-1.8148148-7.095781-2.9037037 1.455545-.7259259 2.729147-1.4518518 4.184692-2.3592593 1.455544-.9074074 2.729146-1.4518518 4.002748-2.3592592zm-17.648482 4.7185185c-2.36526 1.0888889-4.730521 1.9962963-7.0957814 2.9037037-.3638862-2.3592593-.7277725-4.9-.9097156-7.6222222 1.2736018.9074074 2.5472036 1.6333333 4.002749 2.5407407 1.455544.9074074 2.729146 1.4518519 4.002748 2.1777778zm-12.9179611-12.8851852c-2.0013742-1.4518518-4.0027485-3.0851852-6.0041227-4.7185185 1.8194311-1.6333333 4.0027485-3.0851852 6.0041227-4.537037v4.7185185zm4.9124641-17.6037037c.3638862-2.7222222.5458294-5.2629629.9097156-7.6222222 2.3652604.9074074 4.7305214 1.8148148 7.0957814 2.9037037-1.455545.7259259-2.729147 1.4518518-4.184692 2.3592593-1.2736014.7259259-2.5472032 1.6333333-3.820805 2.3592592zm17.648482-4.7185185c2.365261-1.0888889 4.912464-1.9962963 7.095782-2.9037037.363886 2.3592593.727772 4.9.909715 7.6222222-1.273602-.9074074-2.729147-1.6333333-4.002748-2.3592592-1.273602-.9074075-2.729147-1.6333334-4.002749-2.3592593zm12.917961 13.0666667c2.183318 1.4518518 4.184692 3.0851851 6.004123 4.537037-1.819431 1.6333333-4.002749 3.0851852-6.004123 4.537037 0-1.4518518 0-3.0851851 0-4.537037s0-3.0851852 0-4.537037zm-17.648482-39.925926c4.184692 0 8.551326 7.6222223 11.09853 19.7814815-3.820805 1.4518519-7.459668 2.9037037-11.09853 4.7185185-3.820805-1.8148148-7.459668-3.4481481-11.0985298-4.7185185 2.5472038-12.3407407 6.9138378-19.9629629 11.0985298-19.7814815zm-32.7497604 36.2962963c-5.4582934-5.9888889-7.6416108-11.2518518-6.1860659-13.974074.9097156-1.6333334 3.6388623-2.5407408 7.4596677-2.5407408 5.2763503.1814815 10.3707575 1.0888889 15.2832216 2.9037037-.7277725 3.8111111-1.0916587 7.8037037-1.4555449 11.9777778-3.2749761 2.1777778-6.5499521 4.7185185-9.6429851 7.2592593-1.8194311-1.9962963-3.6388623-3.8111112-5.4582934-5.625926zm1.2736018 33.2111111c-3.8208054 0-6.5499521-.9074074-7.4596677-2.5407407-1.637488-2.7222222.7277725-7.9851852 6.0041228-13.9740741 1.8194311-1.9962963 3.6388623-3.8111111 5.6402365-5.6259259 3.093033 2.5407407 6.368009 5.0814815 9.6429851 7.2592593.3638862 4.174074.7277724 8.1666666 1.4555449 11.9777777-4.9124641 1.6333334-10.0068713 2.5407408-15.2832216 2.9037037zm31.4761586 19.5999996c-4.184692 0-8.551326-7.622222-11.0985298-19.781481 3.8208058-1.4518519 7.4596678-2.9037037 11.0985298-4.7185186 3.638862 1.8148149 7.277725 3.4481482 11.09853 4.7185186-2.729147 12.340741-7.095781 19.781481-11.09853 19.781481zm38.753883-22.3222218c-.909715 1.6333334-3.638862 2.5407408-7.459667 2.5407408-5.276351-.1814815-10.370758-1.2703704-15.283222-2.9037037.727773-3.8111112 1.091659-7.8037037 1.455545-11.9777778 3.274976-2.1777778 6.549952-4.7185185 9.642985-7.2592593 9.279099 8.5296297 13.645734 16.1518519 11.644359 19.6z"/></g></svg>