<svg height="235" viewBox="0 0 597 235" width="597" xmlns="http://www.w3.org/2000/svg" xmlns:xlink="http://www.w3.org/1999/xlink"><mask id="a" fill="#fff"><path d="m.42037912 35.7402028c0 19.6577865 15.93697118 35.5935303 35.59475768 35.5935303 19.6577866 0 35.5935304-15.9357438 35.5935304-35.5935303 0-19.659014-15.9357438-35.59475776-35.5935304-35.59475776-19.6577865 0-35.59475768 15.93574376-35.59475768 35.59475776z" fill="none"/></mask><mask id="b" fill="#fff"><path d="m.42037912 35.7402028c0 19.6577865 15.93697118 35.5935303 35.59475768 35.5935303 19.6577866 0 35.5935304-15.9357438 35.5935304-35.5935303 0-19.659014-15.9357438-35.59475776-35.5935304-35.59475776-19.6577865 0-35.59475768 15.93574376-35.59475768 35.59475776z" fill="none"/></mask><mask id="c" fill="#fff"><path d="m.42037912 35.7402028c0 19.6577865 15.93697118 35.5935303 35.59475768 35.5935303 19.6577866 0 35.5935304-15.9357438 35.5935304-35.5935303 0-19.659014-15.9357438-35.59475776-35.5935304-35.59475776-19.6577865 0-35.59475768 15.93574376-35.59475768 35.59475776z" fill="none"/></mask><mask id="d" fill="#fff"><path d="m.42037912 35.7402028c0 19.6577865 15.93697118 35.5935303 35.59475768 35.5935303 19.6577866 0 35.5935304-15.9357438 35.5935304-35.5935303 0-19.659014-15.9357438-35.59475776-35.5935304-35.59475776-19.6577865 0-35.59475768 15.93574376-35.59475768 35.59475776z" fill="none"/></mask><mask id="e" fill="#fff"><path d="m.42037912 35.7402028c0 19.6577865 15.93697118 35.5935303 35.59475768 35.5935303 19.6577866 0 35.5935304-15.9357438 35.5935304-35.5935303 0-19.659014-15.9357438-35.59475776-35.5935304-35.59475776-19.6577865 0-35.59475768 15.93574376-35.59475768 35.59475776z" fill="none"/></mask><g fill="none" fill-rule="evenodd" transform=""><path d="m1 198h594v-13h-594z" fill="#e5e8ec"/><path d="m2.9193154 196.090909h591.1613696v-10.181818h-591.1613696zm-2.9193154 2.909091h597v-16h-597z" fill="#282d33"/><path d="m523 157.249819c0 7.041296-5.821072 12.750181-13.000738 12.750181s-12.999262-5.708885-12.999262-12.750181v-25.500362c0-7.042019 5.819596-12.749457 12.999262-12.749457s13.000738 5.707438 13.000738 12.749457z" fill="#c0d44c"/><path d="m510.499261 120.900614c-6.364448 0-11.542491 5.079699-11.542491 11.32327v25.550781c0 6.244296 5.178043 11.324721 11.542491 11.324721 6.365186 0 11.543969-5.080425 11.543969-11.324721v-25.550781c0-6.243571-5.178783-11.32327-11.543969-11.32327m0 51.099386c-7.994367 0-14.499261-6.382075-14.499261-14.225335v-25.550781c0-7.842534 6.504894-14.223884 14.499261-14.223884 7.995106 0 14.500739 6.38135 14.500739 14.223884v25.550781c0 7.84326-6.505633 14.225335-14.500739 14.225335" fill="#282d33"/><path d="m531 158h-41l6.489976 24h28.020048z" fill="#b7bec0"/><path d="m497.569932 180.135539h25.860874l5.705222-20.271078h-37.271319zm28.112275 2.864461h-30.364414l-7.317793-26h45z" fill="#282d33"/><path d="m488 159h44v-6h-44z" fill="#b7bec0"/><path d="m489.942281 157.054492h41.115438v-3.108984h-41.115438zm-2.942281 2.945508h47v-9h-47z" fill="#282d33"/><path d="m493 184h35v-5h-35z" fill="#b7bec0"/><path d="m493.914669 182.003465h32.170662v-2.00693h-32.170662zm-2.914669 2.996535h38v-8h-38z" fill="#282d33"/><path d="m510 119v-6z" fill="#b7bec0"/><path d="m509 119h3v-6h-3z" fill="#282d33"/><path d="m504 120-3-5z" fill="#b7bec0"/><path d="m502.625154 121-2.625154-4.609179 2.376217-1.390821 2.623783 4.609179z" fill="#282d33"/><path d="m499 125-5-3z" fill="#b7bec0"/><path d="m497.609179 125-4.609179-2.623783 1.390821-2.376217 4.609179 2.624469z" fill="#282d33"/><path d="m497 131h-6z" fill="#b7bec0"/><path d="m491 133h6v-3h-6z" fill="#282d33"/><path d="m523 132 6 .002z" fill="#b7bec0"/><path d="m529 134-6-.001499.001568-2.998501 5.998432.001499z" fill="#282d33"/><path d="m497 139h-6z" fill="#b7bec0"/><path d="m491 140h6v-3h-6z" fill="#282d33"/><path d="m523 139 6 .001z" fill="#b7bec0"/><path d="m529 141-6-.00075v-2.99925l6 .00075z" fill="#282d33"/><path d="m497 146h-6z" fill="#b7bec0"/><path d="m491 148h6v-3h-6z" fill="#282d33"/><path d="m523 147h6z" fill="#b7bec0"/><path d="m523 148h6v-3h-6z" fill="#282d33"/><path d="m515 131h3z" fill="#b7bec0"/><path d="m515 133h3v-3h-3z" fill="#282d33"/><path d="m515 139 3 .003z" fill="#b7bec0"/><path d="m517.998449 140-2.998449-.002248.001551-2.997752 2.998449.002248z" fill="#282d33"/><path d="m515 146 3 .002z" fill="#b7bec0"/><path d="m517.998449 148-2.998449-.001499.001551-2.998501 2.998449.001499z" fill="#282d33"/><path d="m502 131h3z" fill="#b7bec0"/><path d="m502 133h3v-3h-3z" fill="#282d33"/><path d="m502 139 3 .003z" fill="#b7bec0"/><path d="m504.996898 140-2.996898-.002248.001551-2.997752 2.998449.002248z" fill="#282d33"/><path d="m502 146 3 .002z" fill="#b7bec0"/><path d="m504.998449 148-2.998449-.001499.001551-2.998501 2.998449.001499z" fill="#282d33"/><path d="m509 127 3 .002z" fill="#b7bec0"/><path d="m511.998448 129-2.998448-.001499.001552-2.998501 2.998448.001499z" fill="#282d33"/><path d="m509 135 3 .002z" fill="#b7bec0"/><path d="m511.998448 137-2.998448-.001499.001552-2.998501 2.998448.001499z" fill="#282d33"/><path d="m509 142 3 .002z" fill="#b7bec0"/><path d="m511.998448 144-2.998448-.001499.001552-2.998501 2.998448.001499z" fill="#282d33"/><path d="m522 126 5-3z" fill="#b7bec0"/><path d="m522.389913 126-1.389913-2.376869 4.610087-2.623131 1.389913 2.376869z" fill="#282d33"/><path d="m517 120 3-5z" fill="#b7bec0"/><path d="m518.376869 121-2.376869-1.392696 2.624503-4.607304 2.375497 1.392696z" fill="#282d33"/><path d="m390 131v-124.18552442c0-3.20527606-2.619182-5.81447558-5.837847-5.81447558h-201.328687c-3.216475 0-5.833466 2.60919952-5.833466 5.81447558v124.18552442z" fill="#b7bec0"/><path d="m178.921821 130.086815h210.156358v-122.81186401c0-2.40483413-1.964194-4.36176609-4.379079-4.36176609h-201.402583c-2.411963 0-4.374696 1.95693196-4.374696 4.36176609zm213.078179 2.913185h-216v-125.72504901c0-4.01145561 3.27317-7.27495099 7.296517-7.27495099h201.402583c4.025539 0 7.3009 3.26349538 7.3009 7.27495099z" fill="#282d33"/><path d="m189 120h190v-107h-190z" fill="#fff"/><path d="m190.917292 119.08505h187.165416v-104.1701003h-187.165416zm-2.917292 2.91495h193v-110h-193z" fill="#282d33"/><path d="m177 131v17.788976c0 3.410307 3.527313 7.211024 6.963491 7.211024h200.539208c3.443469 0 5.497301-3.506463 5.497301-6.918216v-18.081784z" fill="#fff"/><path d="m178.91747 132.903134v16.406335c0 2.704995 2.933516 5.787397 5.507454 5.787397h200.61691c2.529446 0 4.040696-2.79354 4.040696-5.493455v-16.700277zm206.124364 25.096866h-200.61691c-4.173441 0-8.424924-4.385909-8.424924-8.690531v-19.309469h216v19.603411c0 4.127531-2.602383 8.396589-6.958166 8.396589z" fill="#282d33"/><path d="m260 157c-.371551 4.511656.434589 14.547638-.541382 19.452414-.895877 4.485842-1.518096 4.637779-3.914269 5.959487-1.352714.738298-3.632453 1.765719-5.544349 2.588099z" fill="#fff"/><path d="m251.171091 186-1.171091-2.664072c1.384218-.588549 3.924779-1.695253 5.389381-2.486275l.309734-.168364c1.886431-1.021796 2.128319-1.153875 2.845133-4.705488.560472-2.785265.495575-7.548084.43879-11.749205-.03761-2.786717-.073746-5.418858.076697-7.226596l2.940265.236581c-.139381 1.669853-.10472 4.235229-.067109 6.950827.058997 4.344085.125369 9.268011-.494838 12.352268-.940265 4.65614-1.785398 5.31218-4.314897 6.684493l-.308259.166912c-1.575959.851255-4.21239 2.00005-5.643806 2.608919" fill="#282d33"/><path d="m317 184c-1.939058-.809212-4.28165-1.824131-5.660702-2.545899-2.413716-1.284417-2.888373-1.432068-3.787527-5.791345-.986749-4.766393-.176687-14.278392-.551771-18.662756z" fill="#fff"/><path d="m316.812632 186c-1.806316-.77424-4.266502-1.862855-5.736966-2.65391l-.191703-.103817c-2.767059-1.510462-3.390465-2.207205-4.31257-6.802929-.625634-3.107927-.560247-7.983664-.502291-12.284753.036409-2.691928.071331-5.233979-.069102-6.916251l2.962477-.23834c.151579 1.81972.116656 4.430495.078761 7.193339-.05647 4.157793-.119628 8.870494.445821 11.677936.735604 3.665028.854489 3.730096 2.83839 4.812863l.185015.100892c1.364954.734029 3.738948 1.783896 5.489536 2.53474z" fill="#282d33"/><path d="m244 185h79z" fill="#fff"/><path d="m244 186h79v-3h-79z" fill="#282d33"/><path d="m315 52h8v-3h-8z" fill="#795be6"/><path d="m327 52h15v-3h-15z" fill="#b7bec0"/><path d="m339 52h8v-3h-8z" fill="#b7bec0"/><path d="m353 52h8v-3h-8z" fill="#b7bec0"/><path d="m315 69h8v-3h-8z" fill="#f8c44f"/><path d="m327 69h9v-3h-9z" fill="#b7bec0"/><path d="m342 69h18v-3h-18z" fill="#b7bec0"/><path d="m315 87h8v-3h-8z" fill="#c0d44c"/><path d="m327 87h16v-3h-16z" fill="#b7bec0"/><path d="m347 87h13v-3h-13z" fill="#b7bec0"/><path d="m188 34h190v-11h-190z" fill="#baaaf4"/><path d="m189.917314 32.1282051h187.165372v-8.2564102h-187.165372zm-2.917314 2.8717949h193v-14h-193z" fill="#282d33"/><path d="m188 23h190v-10h-190z" fill="#fff"/><path d="m189.917314 22.0843846h187.165372v-7.1687692h-187.165372zm-2.917314 2.9156154h193v-13h-193z" fill="#282d33"/><g fill="#fff"><path d="m193 30h22v-3h-22z"/><path d="m314 30h9v-3h-9z"/><path d="m327 30h9v-3h-9z"/><path d="m339 30h9v-3h-9z"/><path d="m352 30h9v-3h-9z"/><path d="m365 30h9v-3h-9z"/></g><path d="m192 20h3v-3h-3z" fill="#282d33"/><path d="m198 20h3v-3h-3z" fill="#282d33"/><path d="m204 20h3v-3h-3z" fill="#282d33"/><g transform="translate(205.465347 39.465347)"><path d="m19.1766519 70.4864697v-7.3643056c0-2.7112919 2.1982453-4.9095371 4.9095371-4.9095371h27.0024541c2.7112919 0 4.9095371 2.1982452 4.9095371 4.9095371v7.3643056z" fill="#baaaf4" mask="url(#a)"/><path d="m57.2255645 70.4864697h-2.4547685v-7.3643056c0-2.0307073-1.6514456-3.6821529-3.6821529-3.6821529h-27.0024541c-2.0307072 0-3.6821528 1.6514456-3.6821528 3.6821529v7.3643056h-2.4547685v-7.3643056c0-3.3845122 2.7530229-6.1369214 6.1369213-6.1369214h27.0024541c3.3838985 0 6.1369214 2.7524092 6.1369214 6.1369214z" fill="#282d33" mask="url(#b)"/><path d="m28.0751879 70.4864697v-6.8119827c0-2.5081598 1.1365579-4.5413218 2.5370033-4.5413218h13.9510634c1.4010592 0 2.5363896 2.033162 2.5363896 4.5413218v6.8119827z" fill="#fff" mask="url(#c)"/><path d="m48.3270285 70.4864697h-2.4547685v-6.8119827c0-2.023343-.859169-3.3139376-1.3090054-3.3139376h-13.9510634c-.4498363 0-1.309619 1.2905946-1.309619 3.3139376v6.8119827h-2.4547685v-6.8119827c0-3.2881625 1.6183061-5.7687061 3.7643875-5.7687061h13.9510634c2.1454677 0 3.7637739 2.4805436 3.7637739 5.7687061z" fill="#282d33" mask="url(#d)"/><path d="m33.2915711 63.1219186h8.59169v-15.9559956h-8.59169z" fill="#fff" mask="url(#e)"/><path d="m34.5189554 61.8945343h6.1369214v-13.501227h-6.1369214zm-2.4547686 2.4547686h11.0464585v-18.4107642h-11.0464585z" fill="#282d33" mask="url(#e)"/><path d="m34.7239286 25.8907508c0 5.8742611-4.5793708 10.6371258-10.2284069 10.6371258s-10.2284069-4.7628647-10.2284069-10.6371258c0-5.8748749 4.5793708-10.6371259 10.2284069-10.6371259s10.2284069 4.762251 10.2284069 10.6371259" fill="#baaaf4" mask="url(#e)"/><path d="m24.4955217 16.4810092c-4.9629283 0-9.0010226 4.2209746-9.0010226 9.4097416 0 5.1881533 4.0380943 9.4097415 9.0010226 9.4097415s9.0010226-4.2215882 9.0010226-9.4097415c0-5.188767-4.0380943-9.4097416-9.0010226-9.4097416m0 21.2742517c-6.3167332 0-11.4557911-5.3225519-11.4557911-11.8645101s5.1390579-11.8645101 11.4557911-11.8645101c6.3161195 0 11.4557912 5.3225519 11.4557912 11.8645101s-5.1396717 11.8645101-11.4557912 11.8645101" fill="#282d33" mask="url(#e)"/><path d="m28.5870072 37.4933371c0 3.7607054-2.93038 6.8089143-6.546254 6.8089143-3.6152604 0-6.5462541-3.0482089-6.5462541-6.8089143 0-3.7600917 2.9309937-6.8076869 6.5462541-6.8076869 3.615874 0 6.546254 3.0475952 6.546254 6.8076869" fill="#baaaf4" mask="url(#e)"/><path d="m22.0407532 31.9132186c-2.9328348 0-5.3188698 2.5032502-5.3188698 5.5803026s2.386035 5.5809163 5.3188698 5.5809163c2.9328347 0 5.3188697-2.5038639 5.3188697-5.5809163s-2.386035-5.5803026-5.3188697-5.5803026m0 13.6159875c-4.2860259 0-7.7736384-3.6048277-7.7736384-8.0356849s3.4876125-8.0350712 7.7736384-8.0350712c4.2860258 0 7.7736383 3.604214 7.7736383 8.0350712s-3.4876125 8.0356849-7.7736383 8.0356849" fill="#282d33" mask="url(#e)"/><path d="m29.8143915 32.175081c0 3.7600918-2.93038 6.8083006-6.5462541 6.8083006-3.6152604 0-6.546254-3.0482088-6.546254-6.8083006 0-3.7600917 2.9309936-6.8083006 6.546254-6.8083006 3.6158741 0 6.5462541 3.0482089 6.5462541 6.8083006" fill="#fff" mask="url(#e)"/><path d="m23.2681374 26.5943488c-2.9328347 0-5.3188697 2.5038639-5.3188697 5.5809163s2.386035 5.5803026 5.3188697 5.5803026c2.9328348 0 5.3188698-2.5032502 5.3188698-5.5803026s-2.386035-5.5809163-5.3188698-5.5809163m0 13.6159875c-4.2860259 0-7.7736383-3.6048276-7.7736383-8.0350712 0-4.4308572 3.4876124-8.0356848 7.7736383-8.0356848s7.7736383 3.6048276 7.7736383 8.0356848c0 4.4302436-3.4876124 8.0350712-7.7736383 8.0350712" fill="#282d33" mask="url(#e)"/><path d="m55.5894613 37.4933371c0 3.7607054-2.93038 6.8089143-6.5462541 6.8089143-3.6152603 0-6.546254-3.0482089-6.546254-6.8089143 0-3.7600917 2.9309937-6.8076869 6.546254-6.8076869 3.6158741 0 6.5462541 3.0475952 6.5462541 6.8076869" fill="#baaaf4" mask="url(#e)"/><path d="m49.0432072 31.9132186c-2.9328347 0-5.3188697 2.5032502-5.3188697 5.5803026s2.386035 5.5809163 5.3188697 5.5809163c2.9328348 0 5.3188698-2.5038639 5.3188698-5.5809163s-2.386035-5.5803026-5.3188698-5.5803026m0 13.6159875c-4.2860259 0-7.7736383-3.6048277-7.7736383-8.0356849s3.4876124-8.0350712 7.7736383-8.0350712 7.7736384 3.604214 7.7736384 8.0350712-3.4876125 8.0356849-7.7736384 8.0356849" fill="#282d33" mask="url(#e)"/><path d="m49.8241305 38.5157482c0 8.0602325-6.5339802 14.5942127-14.5942128 14.5942127-8.0596188 0-14.5942127-6.5339802-14.5942127-14.5942127v-11.6748792c0-8.0596189 6.5345939-14.5935991 14.5942127-14.5935991 8.0602326 0 14.5942128 6.5339802 14.5942128 14.5935991z" fill="#fff" mask="url(#e)"/><path d="m35.2297336 13.4748383c-7.3704425 0-13.3668284 5.9957722-13.3668284 13.3656011v11.6754929c0 7.3704426 5.9963859 13.3668285 13.3668284 13.3668285 7.3704426 0 13.3668285-5.9963859 13.3668285-13.3668285v-11.6754929c0-7.3698289-5.9963859-13.3656011-13.3668285-13.3656011m0 40.862691c-8.7242474 0-15.821597-7.0973496-15.821597-15.821597v-11.6754929c0-8.7236338 7.0973496-15.8203697 15.821597-15.8203697 8.7242475 0 15.8215971 7.0967359 15.8215971 15.8203697v11.6754929c0 8.7242474-7.0973496 15.821597-15.8215971 15.821597" fill="#282d33" mask="url(#e)"/><path d="m48.4199415 16.1591891 10.3965585 10.3959448-1.8809664 1.8809664c-5.7521364 5.7527501-15.0771884 5.7515227-20.8293248 0l-12.9961585-12.9967721c7.2397262-6.47015623 18.3586004-6.23142999 25.3098912.7198609" fill="#baaaf4" mask="url(#e)"/><g fill="#282d33"><path d="m24.9306294 15.5245087 12.0437082 12.0437082c2.5498909 2.5498908 5.9411536 3.9546321 9.5472086 3.9546321 3.6060551 0 6.9960904-1.4047413 9.5459813-3.9546321l1.0132057-1.0125921-9.5287979-9.5287978c-3.2501135-3.2501136-7.5711199-5.0396398-12.1664466-5.0396398-3.8005954 0-7.4655649 1.2482498-10.4548593 3.5373215m21.5909168 18.4531089c-4.2620919 0-8.2688878-1.6600373-11.2833436-4.6738794l-13.9142419-13.9142418.9677925-.8653059c3.6023729-3.2188153 8.2517045-4.99177188 13.0937355-4.99177188 5.2513636 0 10.1885169 2.04543588 13.901968 5.75888698l11.2649329 11.2643192-2.7493408 2.7487271c-3.0132284 3.0132284-7.0200243 4.6732657-11.2815026 4.6732657" mask="url(#e)"/><path d="m33.6038177 33.1579703h-2.4547686c0-1.2991862-1.0573915-2.3571915-2.3571915-2.3571915-1.2997999 0-2.3571915 1.0580053-2.3571915 2.3571915h-2.4547685c0-2.6529911 2.1583552-4.81196 4.81196-4.81196 2.6529911 0 4.8119601 2.1589689 4.8119601 4.81196" mask="url(#e)"/><path d="m32.0641868 44.7105407h5.5232293v-2.4547685h-5.5232293z" mask="url(#e)"/><path d="m34.2121093 68.2364289h6.7506136v-2.4547686h-6.7506136z" mask="url(#e)"/><path d="m36.3600318 70.0768916h2.4547686v-3.5808936h-2.4547686z" mask="url(#e)"/></g></g><path d="m37.1134463 2.59140661c-18.8840661 0-34.2479339 15.36386779-34.2479339 34.24793389s15.3638678 34.2479339 34.2479339 34.2479339 34.2479339-15.3638678 34.2479339-34.2479339-15.3638678-34.24793389-34.2479339-34.24793389m0 70.94214879c-20.2331901 0-36.69421489-16.4610248-36.69421489-36.6942149s16.46102479-36.69421488 36.69421489-36.69421488 36.6942149 16.46102478 36.6942149 36.69421488-16.4610248 36.6942149-36.6942149 36.6942149" fill="#282d33" transform="translate(204 38)"/><path d="m232.01641 48-.01641-.9779951 2.98359-.0220049.01641.9779951z" fill="#282d33"/><path d="m199 74h1v-3h-1z" fill="#282d33"/><path d="m314 58h47v-3h-47z" fill="#b7bec0"/><path d="m314 75h47v-3h-47z" fill="#b7bec0"/><path d="m314 93h47v-3h-47z" fill="#b7bec0"/><path d="m428 183h83v-9h-83z" fill="#fff"/><path d="m429.911898 182.166804h80.176204v-6.333608h-80.176204zm-2.911898 2.833196h86v-12h-86z" fill="#282d33"/><path d="m493 183h11v-9h-11z" fill="#f8c44f"/><path d="m493.849595 182.166804h8.299384v-6.333608h-8.299384zm-2.849595 2.833196h14v-12h-14z" fill="#282d33"/><path d="m425 173h79v-15h-79z" fill="#fff"/><path d="m425.913972 172.111218h76.170599v-12.222436h-76.170599zm-2.913972 2.888782h82v-18h-82z" fill="#282d33"/><path d="m488 166h-8z" fill="#fff"/><path d="m480 168h8v-3h-8z" fill="#282d33"/><path d="m498 171v-8z" fill="#fff"/><path d="m496 171h3v-8h-3z" fill="#282d33"/><path d="m431 171v-8z" fill="#fff"/><path d="m429 171h3v-8h-3z" fill="#282d33"/><path d="m477 166h-40z" fill="#fff"/><path d="m437 168h40v-3h-40z" fill="#282d33"/><path d="m423 235h160v-36h-160z" fill="#e5e8ec"/><path d="m585 235h-2.923767v-35.076923h-157.152466v35.076923h-2.923767v-38h163z" fill="#282d33"/><path d="m431 228h145v-22h-145z" fill="#e5e8ec"/><path d="m431.916256 226.058824h142.167488v-19.117648h-142.167488zm-2.916256 2.941176h148v-25h-148z" fill="#282d33"/><path d="m485 220h36v-5h-36z" fill="#e5e8ec"/><path d="m486.943396 218.090909h33.113208v-2.181818h-33.113208zm-2.943396 2.909091h39v-8h-39z" fill="#282d33"/><path d="m15 235h160v-36h-160z" fill="#e5e8ec"/><path d="m177 235h-2.923767v-35.076923h-157.1524662v35.076923h-2.9237668v-38h163z" fill="#282d33"/><path d="m23 228h145v-22h-145z" fill="#e5e8ec"/><path d="m23.9162562 226.058824h142.1674878v-19.117648h-142.1674878zm-2.9162562 2.941176h148v-25h-148z" fill="#282d33"/><path d="m77 220h36v-5h-36z" fill="#e5e8ec"/><path d="m78.9433962 218.090909h33.1132078v-2.181818h-33.1132078zm-2.9433962 2.909091h39v-8h-39z" fill="#282d33"/></g></svg>