<?xml version="1.0" encoding="UTF-8"?>
<svg width="69px" height="69px" viewBox="0 0 69 69" version="1.1" xmlns="http://www.w3.org/2000/svg" xmlns:xlink="http://www.w3.org/1999/xlink">
    <!-- Generator: Sketch 49.2 (51160) - http://www.bohemiancoding.com/sketch -->
    <title>Group 2</title>
    <desc>Created with Sketch.</desc>
    <defs></defs>
    <g id="Page-1" stroke="none" stroke-width="1" fill="none" fill-rule="evenodd">
        <g id="home_zenklub" transform="translate(-104.000000, -1896.000000)">
            <g id="mod_3depoimentos" transform="translate(0.000000, 1618.000000)">
                <g id="Group-2" transform="translate(105.000000, 279.000000)">
                    <path d="M37.291844,49 L29.708156,49 C24.3686702,49 20,44.7453514 20,39.5452253 L20,18.4547747 C20,13.2546486 24.3686702,9 29.708156,9 L37.291844,9 C42.6313298,9 47,13.2546486 47,18.4547747 L47,39.5452253 C47,44.7453514 42.6313298,49 37.291844,49" id="Fill-402" fill="#9ECFEF"></path>
                    <path d="M37.291844,49 L29.708156,49 C24.3686702,49 20,44.7453514 20,39.5452253 L20,18.4547747 C20,13.2546486 24.3686702,9 29.708156,9 L37.291844,9 C42.6313298,9 47,13.2546486 47,18.4547747 L47,39.5452253 C47,44.7453514 42.6313298,49 37.291844,49 Z" id="Stroke-403" stroke="#0686D8" stroke-width="1.5"></path>
                    <path d="M46,57 L46,54.8996572 C46,47.8055469 40.1505104,42 32.9992148,42 C25.8494896,42 20,47.8055469 20,54.8996572 L20,57 L46,57 Z" id="Fill-404" fill="#5FB0E5"></path>
                    <path d="M30.0785134,55 L37.0281059,55 C40.2581754,55 42.120368,52.5780463 41.9939528,48.7994713 L41.9939528,44.8359768 C40.0928632,43.31571 37.7833555,42.3011078 35.2615351,42 C33.606793,42.0196375 32.2210884,42.0441843 31.9180161,42.0736405 C31.8515671,42.0818228 31.6943585,42.0916415 31.4739423,42.0998238 C29.0526058,42.5122105 26.8452026,43.5742699 25.0429762,45.1174471 L25.0429762,49.2020393 C24.6491443,52.2720292 27.0121354,55 30.0785134,55" id="Fill-405" fill="#FFFFFF"></path>
                    <path d="M30.0785134,55 L37.0281059,55 C40.2581754,55 42.120368,52.5780463 41.9939528,48.7994713 L41.9939528,44.8359768 C40.0928632,43.31571 37.7833555,42.3011078 35.2615351,42 C33.606793,42.0196375 32.2210884,42.0441843 31.9180161,42.0736405 C31.8515671,42.0818228 31.6943585,42.0916415 31.4739423,42.0998238 C29.0526058,42.5122105 26.8452026,43.5742699 25.0429762,45.1174471 L25.0429762,49.2020393 C24.6491443,52.2720292 27.0121354,55 30.0785134,55 Z" id="Stroke-406" stroke="#0686D8" stroke-width="1.5"></path>
                    <path d="M25,45.1333749 C27.3348449,43.1826114 30.3712697,42 33.6780281,42 C41.0059977,42 47,47.8055469 47,54.8996572 L47,57" id="Stroke-407" stroke="#0686D8" stroke-width="1.5"></path>
                    <path d="M22,49 C22.49,48.2910217 23.064,47.622291 23.712,47" id="Stroke-408" stroke="#0686D8" stroke-width="1.5"></path>
                    <path d="M20,57 L20,54.9203949 C20,53.9160753 20.152,52.9379821 20.44,52" id="Stroke-409" stroke="#0686D8" stroke-width="1.5"></path>
                    <path d="M33,48 C31.3429363,48 30,46.6936136 30,45.0816492 L30,38.9183508 C30,37.3063864 31.3429363,36 33,36 C34.6570637,36 36,37.3063864 36,38.9183508 L36,45.0816492 C36,46.6936136 34.6570637,48 33,48" id="Fill-410" fill="#FFFFFF"></path>
                    <path d="M30,46 L30,38.8646247 C30,37.2823361 31.3433084,36 33.0008313,36 C34.6566916,36 36,37.2823361 36,38.8646247 L36,46" id="Stroke-411" stroke="#0686D8" stroke-width="1.5"></path>
                    <path d="M38.2906551,40.1883037 L36.39235,41 L30.60765,41 L28.7093449,40.1883037 C25.2430142,38.7060067 23,35.3292232 23,31.5957372 L23,20.2082086 L23.4425103,20.2082086 C27.0755841,20.2082086 30.4874027,18.4770125 32.6069629,15.5583935 L33.7388914,14 L34.7361429,15.4188832 C36.8444801,18.4183548 40.3060009,20.2082086 44,20.2082086 L44,31.5957372 C44,35.3292232 41.7569858,38.7060067 38.2906551,40.1883037" id="Fill-412" fill="#FFFFFF"></path>
                    <path d="M44,21 L44,22.8029737 L44,32.5015631 C44,36.2724361 41.7555539,39.6830347 38.2910909,41.1801754 L36.3929308,42 L30.6070692,42 L28.7105123,41.1801754 C25.2444461,39.6830347 23,36.2724361 23,32.5015631 L23,22.8029737 L23,21" id="Stroke-413" stroke="#0686D8" stroke-width="1.5"></path>
                    <path d="M21,20 L23.0093023,20 C26.571962,20 29.9176548,18.3268641 31.9961349,15.5061287 L33.1061251,14 L34.0840485,15.3712972 C36.1515231,18.2701736 39.5459548,20 43.1699312,20 L45,20" id="Stroke-414" stroke="#0686D8" stroke-width="1.5"></path>
                    <polyline id="Stroke-415" stroke="#0686D8" stroke-width="1.5" points="32 23 32 32 34.3114144 32 35 31.1600839"></polyline>
                    <path d="M30,25 C29.6159587,25.446 29.0855339,25.722 28.5,25.722 C27.9144661,25.722 27.3840413,25.446 27,25" id="Stroke-416" stroke="#0686D8" stroke-width="1.5"></path>
                    <path d="M39,25 C38.6159587,25.446 38.0855339,25.722 37.5,25.722 C36.9144661,25.722 36.3840413,25.446 36,25" id="Stroke-417" stroke="#0686D8" stroke-width="1.5"></path>
                    <path d="M30,36.57 L34.2270774,36.57 C35.3001433,36.57 36.3180516,35.994 37,35" id="Stroke-418" stroke="#0686D8" stroke-width="1.5"></path>
                    <path d="M33,50 L33,55" id="Stroke-419" stroke="#0686D8" stroke-width="1.5"></path>
                    <path d="M49,3 C49.6791809,3.428 50.3464164,3.88 51,4.356" id="Stroke-420" stroke="#0686D8" stroke-width="1.5"></path>
                    <path d="M59.5965626,12.4927067 C60.0004728,12.9932386 60.3885435,13.5048583 60.7639424,14.0275657 C62.1879241,16.0201896 63.4012388,18.1759616 64.3674555,20.4600345 C66.0622946,24.4674579 67,28.8740396 67,33.499208 C67,38.1259604 66.0622946,42.5309582 64.3674555,46.5399655 C62.6726164,50.5473888 60.2190596,54.1572378 57.1873567,57.1873567 C54.1572378,60.2190596 50.5473888,62.6726164 46.5399655,64.3674555 C42.5325421,66.0622946 38.1259604,67 33.499208,67 C28.8740396,67 24.4674579,66.0622946 20.4600345,64.3674555 C16.4526112,62.6726164 12.8427622,60.2190596 9.81264332,57.1873567 C6.78094045,54.1572378 4.32738363,50.5473888 2.6325445,46.5399655 C0.937705383,42.5309582 0,38.1259604 0,33.499208 C0,28.8740396 0.937705383,24.4674579 2.6325445,20.4600345 C4.32738363,16.4526112 6.78094045,12.8427622 9.81264332,9.81105936 C12.8427622,6.78094045 16.4526112,4.32738363 20.4600345,2.6325445 C24.4674579,0.937705383 28.8740396,0 33.499208,0 C37.1043051,0 40.5763493,0.568642285 43.8298069,1.62197688 C44.7516726,1.92134566 45.6545308,2.25872952 46.5399655,2.6325445" id="Stroke-421" stroke="#4B9DF4" stroke-width="1.5"></path>
                    <path d="M54,7 C54.5591572,7.49726776 55.1037277,8.01092896 55.6337115,8.54462659 C56.1004862,9.01639344 56.5559157,9.50091075 57,10" id="Stroke-422" stroke="#0686D8" stroke-width="1.5"></path>
                </g>
            </g>
        </g>
    </g>
</svg>