<?xml version="1.0" encoding="UTF-8"?>
<svg width="71px" height="71px" viewBox="0 0 71 71" version="1.1" xmlns="http://www.w3.org/2000/svg" xmlns:xlink="http://www.w3.org/1999/xlink">
    <!-- Generator: Sketch 49.2 (51160) - http://www.bohemiancoding.com/sketch -->
    <title>Group 4</title>
    <desc>Created with Sketch.</desc>
    <defs></defs>
    <g id="Page-1" stroke="none" stroke-width="1" fill="none" fill-rule="evenodd">
        <g id="home_zenklub" transform="translate(-1149.000000, -1984.000000)">
            <g id="mod_3depoimentos" transform="translate(0.000000, 1618.000000)">
                <g id="Group-4" transform="translate(1150.000000, 367.000000)">
                    <path d="M22.045313,23.1792614 C22.045313,23.1792614 21.171463,14.5168645 27.0986836,11.8174908 C33.0259041,9.11811718 42.3609572,6.41874352 43.5577121,9.11811718 C44.5337241,11.3199368 42.4813624,14.2385393 41.6932555,15.23746 C41.5582557,15.4090304 41.6294043,15.6644796 41.8300796,15.7426394 C43.1581857,16.2592568 47.0622337,18.1122167 45.725006,21.6198774 C44.1196031,25.8233513 22.045313,23.1792614 22.045313,23.1792614" id="Fill-443" fill="#9ECFEF"></path>
                    <path d="M22.045313,23.1792614 C22.045313,23.1792614 21.171463,14.5168645 27.0986836,11.8174908 C33.0259041,9.11811718 42.3609572,6.41874352 43.5577121,9.11811718 C44.5337241,11.3199368 42.4813624,14.2385393 41.6932555,15.23746 C41.5582557,15.4090304 41.6294043,15.6644796 41.8300796,15.7426394 C43.1581857,16.2592568 47.0622337,18.1122167 45.725006,21.6198774 C44.1196031,25.8233513 22.045313,23.1792614 22.045313,23.1792614 Z" id="Stroke-444" stroke="#0686D8" stroke-width="1.5"></path>
                    <path d="M49,29.6536668 C49,30.3963544 48.3274559,31 47.5,31 C46.6706549,31 46,30.3963544 46,29.6536668 L46,28.3480288 C46,27.60195 46.6706549,27 47.5,27 C48.3274559,27 49,27.60195 49,28.3480288 L49,29.6536668 Z" id="Fill-445" fill="#FFFFFF"></path>
                    <path d="M49,29.6536668 C49,30.3963544 48.3274559,31 47.5,31 C46.6706549,31 46,30.3963544 46,29.6536668 L46,28.3480288 C46,27.60195 46.6706549,27 47.5,27 C48.3274559,27 49,27.60195 49,28.3480288 L49,29.6536668 Z" id="Stroke-446" stroke="#0686D8" stroke-width="1.5"></path>
                    <path d="M23,29.6536668 C23,30.3963544 22.3274559,31 21.5,31 C20.6706549,31 20,30.3963544 20,29.6536668 L20,28.3480288 C20,27.60195 20.6706549,27 21.5,27 C22.3274559,27 23,27.60195 23,28.3480288 L23,29.6536668 Z" id="Fill-447" fill="#FFFFFF"></path>
                    <path d="M23,29.6536668 C23,30.3963544 22.3274559,31 21.5,31 C20.6706549,31 20,30.3963544 20,29.6536668 L20,28.3480288 C20,27.60195 20.6706549,27 21.5,27 C22.3274559,27 23,27.60195 23,28.3480288 L23,29.6536668 Z" id="Stroke-448" stroke="#0686D8" stroke-width="1.5"></path>
                    <path d="M50,60 L50,55.7745458 C50,48.7481886 43.025,43 34.5,43 C25.975,43 19,48.7481886 19,55.7745458 L19,60 L50,60 Z" id="Fill-449" fill="#5FB0E5"></path>
                    <path d="M19.476,53 C19.166,53.9362069 19,54.9137931 19,55.9189655 L19,60" id="Stroke-450" stroke="#0686D8" stroke-width="1.5"></path>
                    <path d="M23,47 C22.1904454,47.8753316 21.5125888,48.8875332 21,50" id="Stroke-451" stroke="#0686D8" stroke-width="1.5"></path>
                    <path d="M50,60 L50,55.7745458 C50,48.7481886 43.1042719,43 34.6761599,43 C31.4625632,43 28.4712908,43.835451 26,45.2600021" id="Stroke-452" stroke="#0686D8" stroke-width="1.5"></path>
                    <path d="M34,49 C32.3424908,49 31,47.6939866 31,46.0815145 L31,39.9184855 C31,38.3077951 32.3424908,37 34,37 C35.6575092,37 37,38.3077951 37,39.9184855 L37,46.0815145 C37,47.6939866 35.6575092,49 34,49" id="Fill-453" fill="#FFFFFF"></path>
                    <path d="M34,49 C32.3424908,49 31,47.6939866 31,46.0815145 L31,39.9184855 C31,38.3077951 32.3424908,37 34,37 C35.6575092,37 37,38.3077951 37,39.9184855 L37,46.0815145 C37,47.6939866 35.6575092,49 34,49 Z" id="Stroke-454" stroke="#0686D8" stroke-width="1.5"></path>
                    <path d="M46,22 L45.0278909,38.1031459 C44.930116,39.7214775 43.9053588,41.1403144 42.3917267,41.7537143 L34.9119398,44.7871539 C34.2011908,45.0761417 33.4020683,45.0705484 32.6931996,44.7722384 L25.5593858,41.7704942 C24.0720777,41.1459077 23.0717643,39.7401219 22.9739893,38.1404346 L22,22 L46,22 Z" id="Fill-455" fill="#FFFFFF"></path>
                    <path d="M46,22 L45.0278909,38.1031459 C44.930116,39.7214775 43.9053588,41.1403144 42.3917267,41.7537143 L34.9119398,44.7871539 C34.2011908,45.0761417 33.4020683,45.0705484 32.6931996,44.7722384 L25.5593858,41.7704942 C24.0720777,41.1459077 23.0717643,39.7401219 22.9739893,38.1404346 L22,22 L46,22 Z" id="Stroke-456" stroke="#0686D8" stroke-width="1.5"></path>
                    <path d="M46.1315002,25.9248305 C37.8483335,23.7877499 29.1516574,23.7877499 20.8684907,25.9248305 C19.6965719,26.2267092 18.4523353,25.5953409 18.0907464,24.4614549 C17.7291575,23.3294096 18.4801498,22.0740358 19.7744526,21.7408647 C28.7752341,19.4197118 38.2247568,19.4197118 47.2273926,21.7408647 C48.5198411,22.0740358 49.2708334,23.3294096 48.9092445,24.4614549 C48.5476556,25.5953409 47.303419,26.2267092 46.1315002,25.9248305" id="Fill-457" fill="#D2E9F7"></path>
                    <path d="M46.1315002,25.9248305 C37.8483335,23.7877499 29.1516574,23.7877499 20.8684907,25.9248305 C19.6965719,26.2267092 18.4523353,25.5953409 18.0907464,24.4614549 C17.7291575,23.3294096 18.4801498,22.0740358 19.7744526,21.7408647 C28.7752341,19.4197118 38.2247568,19.4197118 47.2273926,21.7408647 C48.5198411,22.0740358 49.2708334,23.3294096 48.9092445,24.4614549 C48.5476556,25.5953409 47.303419,26.2267092 46.1315002,25.9248305 Z" id="Stroke-458" stroke="#0686D8" stroke-width="1.5"></path>
                    <polyline id="Stroke-459" stroke="#0686D8" stroke-width="1.5" points="33 28 33 35 36 35"></polyline>
                    <polyline id="Stroke-460" stroke="#0686D8" stroke-width="1.5" points="31 40 35.8461538 40 38 39"></polyline>
                    <path d="M47.5,33 C47.2243902,33 47,32.7756098 47,32.5 C47,32.2243902 47.2243902,32 47.5,32 C47.7756098,32 48,32.2243902 48,32.5 C48,32.7756098 47.7756098,33 47.5,33 Z" id="Stroke-461" stroke="#0686D8" stroke-width="1.5"></path>
                    <path d="M44,13 C44,13 42.176338,15.1634615 41,16" id="Stroke-462" stroke="#0686D8" stroke-width="1.5"></path>
                    <path d="M27,29 C27.5115512,28.3824701 28.2194719,28 29,28 C29.7805281,28 30.4884488,28.3824701 31,29" id="Stroke-463" stroke="#0686D8" stroke-width="1.5"></path>
                    <path d="M37,29 C37.5115512,28.3824701 38.2194719,28 39,28 C39.7805281,28 40.4884488,28.3824701 41,29" id="Stroke-464" stroke="#0686D8" stroke-width="1.5"></path>
                    <path d="M51,4 C51.6808923,4.31490787 52.3482056,4.64824121 53,5" id="Stroke-465" stroke="#0686D8" stroke-width="1.5"></path>
                    <path d="M61.3751478,12.8656636 C61.7904084,13.3810317 62.1908383,13.9075228 62.5764374,14.4469909 C64.0446803,16.499194 65.292316,18.7182429 66.2878291,21.0707684 C68.0341483,25.1974207 69,29.735626 69,34.5 C69,39.2625202 68.0341483,43.8007254 66.2878291,47.9292316 C64.5433638,52.0558839 62.0165771,55.7728372 58.8947071,58.8947071 C55.7728372,62.0165771 52.0558839,64.5433638 47.9292316,66.2878291 C43.8007254,68.0341483 39.2625202,69 34.5,69 C29.735626,69 25.1974207,68.0341483 21.0707684,66.2878291 C16.9441161,64.5433638 13.2271628,62.0165771 10.1052929,58.8947071 C6.98342289,55.7728372 4.45663622,52.0558839 2.71031703,47.9292316 C0.965851693,43.8007254 0,39.2625202 0,34.5 C0,29.735626 0.965851693,25.1974207 2.71031703,21.0707684 C4.45663622,16.9441161 6.98342289,13.2271628 10.1052929,10.1052929 C13.2271628,6.98342289 16.9441161,4.45663622 21.0707684,2.71031703 C25.1974207,0.965851693 29.735626,0 34.5,0 C38.2113917,0 41.787453,0.585814078 45.1373455,1.6721655 C46.0865126,1.97804944 47.0171413,2.32657174 47.9292316,2.71031703" id="Stroke-466" stroke="#0686D8" stroke-width="1.5"></path>
                    <path d="M56,7 C56.558011,7.33126294 57.1031308,7.67494824 57.6335175,8.0310559 C58.1012891,8.34437543 58.5561694,8.6673568 59,9" id="Stroke-467" stroke="#0686D8" stroke-width="1.5"></path>
                </g>
            </g>
        </g>
    </g>
</svg>